<?xml version="1.0" standalone="no"?>
<!DOCTYPE svg PUBLIC "-//W3C//DTD SVG 1.1//EN" "http://www.w3.org/Graphics/SVG/1.1/DTD/svg11.dtd" >
<svg xmlns="http://www.w3.org/2000/svg">
<metadata></metadata>
<defs>
<font id="arthurbold" horiz-adv-x="1077" >
<font-face units-per-em="2048" ascent="1638" descent="-410" />
<missing-glyph horiz-adv-x="505" />
<glyph unicode="&#xfb01;" horiz-adv-x="1345" d="M-18 1030h198v31q0 176 101 289q100 112 282 112q155 0 262 -61l-57 -234q-57 60 -154 60q-102 0 -102 -125v-72h244l-37 -221h-207v-809h-332v809h-160zM823 1030h402v-1030h-332v827q0 78 -70 203zM893 1141v299h332v-299h-332z" />
<glyph unicode="&#xfb02;" horiz-adv-x="1355" d="M-18 1030h198v31q0 176 101 289q100 112 282 112q155 0 262 -61l-57 -234q-57 60 -154 60q-102 0 -102 -125v-72h244l-37 -221h-207v-809h-332v809h-160zM840 1440h401v-1440h-332v1227q0 93 -69 213z" />
<glyph horiz-adv-x="2048" />
<glyph horiz-adv-x="2048" />
<glyph unicode="&#xd;" horiz-adv-x="2048" />
<glyph unicode=" "  horiz-adv-x="505" />
<glyph unicode="&#x09;" horiz-adv-x="505" />
<glyph unicode="&#xa0;" horiz-adv-x="505" />
<glyph unicode="!" horiz-adv-x="753" d="M129 1442h442l-32 -983h-310l-30 770q-3 88 -70 213zM203 0v348h364v-348h-364z" />
<glyph unicode="&#x22;" horiz-adv-x="917" d="M121 891v549h293v-549h-293zM520 891v549h293v-549h-293z" />
<glyph unicode="#" horiz-adv-x="1198" d="M31 399v211h223l37 217h-185v211h222l65 402h248l-66 -402h168l66 402h244l-66 -402h184v-211h-221l-37 -217h185v-211h-219l-68 -399h-246l70 399h-170l-70 -399h-243l67 399h-188zM502 610h168l37 217h-170z" />
<glyph unicode="$" horiz-adv-x="1271" d="M80 1018q0 192 137 311q123 108 320 129v150h174v-146q227 -9 391 -104l-62 -279q-173 116 -329 131v-299q221 -52 319 -131q162 -125 162 -327q0 -203 -143 -328q-129 -114 -338 -141v-160h-174v151q-198 -6 -437 103v305q229 -157 422 -154h15v369q-25 6 -48 12 t-32.5 8.5t-10.5 2.5q-366 114 -366 397zM406 1073q0 -55 55 -92q31 -14 76 -29v250q-131 -27 -131 -129zM711 248q137 34 137 145q0 120 -137 160v-305z" />
<glyph unicode="%" horiz-adv-x="2109" d="M152 1075q0 166 110 279q109 112 277 112q167 0 276 -112q111 -114 111 -279q0 -166 -111 -280q-110 -113 -276 -113q-167 0 -277 113t-110 280zM408 -23l993 1491h270l-993 -1491h-270zM410 1090q0 -82 24 -144q35 -84 105 -84q67 0 102 80q27 58 27 133t-27 133 q-35 78 -102 78q-61 0 -99 -72q-30 -58 -30 -124zM1145 369q0 165 110 278t277 113q164 0 274 -113q113 -113 113 -278q0 -168 -113 -281q-110 -113 -274 -113q-167 0 -277 113t-110 281zM1403 367q0 -75 27 -134q35 -77 102 -77t102 77q25 61 25 136q0 72 -25 133 q-38 78 -102 78q-67 0 -102 -78q-27 -58 -27 -135z" />
<glyph unicode="&#x26;" horiz-adv-x="1540" d="M92 397q0 235 244 383q-124 142 -127 281q-6 190 137 303q131 104 332 104q186 0 311 -84q141 -94 141 -270q0 -226 -276 -364l225 -220q62 109 76 207h293q-40 -214 -172 -401q45 -44 163.5 -161t176.5 -175h-483l-107 102q-204 -127 -424 -127q-229 0 -366 113 q-144 114 -144 309zM428 408q-1 -77 56 -123.5t151 -51.5h4q92 -3 195 56l-312 303q-94 -76 -94 -184zM549 1104q3 -65 94 -150l25 -24q142 80 139 172q-3 119 -129 119q-132 -3 -129 -117z" />
<glyph unicode="'" horiz-adv-x="530" d="M121 891v549h293v-549h-293z" />
<glyph unicode="(" horiz-adv-x="645" d="M57 643q0 481 308 918h321q-254 -426 -254 -918q0 -495 258 -922h-321q-312 439 -312 922z" />
<glyph unicode=")" horiz-adv-x="647" d="M-37 -279q258 427 258 922q0 492 -254 918h322q307 -436 307 -918q0 -488 -309 -922h-324z" />
<glyph unicode="*" horiz-adv-x="997" d="M66 918l208 114l-204 113l112 184l211 -112v223h230v-228l204 111l115 -186l-209 -113l205 -113l-115 -186l-209 115v-224h-229v228l-207 -111z" />
<glyph unicode="+" horiz-adv-x="1175" d="M61 379v264h394v379h280v-379h393v-264h-393v-379h-280v379h-394z" />
<glyph unicode="," horiz-adv-x="514" d="M2 -176l113 524h366l-205 -524h-274z" />
<glyph unicode="-" horiz-adv-x="724" d="M39 434v242h661v-242h-661z" />
<glyph unicode="." horiz-adv-x="593" d="M125 0v348h364v-348h-364z" />
<glyph unicode="/" horiz-adv-x="870" d="M-6 -25l584 1493h309l-584 -1493h-309z" />
<glyph unicode="0" horiz-adv-x="1402" d="M39 721q0 319 168 526q182 221 475 221q294 0 473 -221q170 -209 170 -526q0 -315 -170 -524q-180 -222 -473 -222q-292 0 -475 222q-168 207 -168 524zM412 721q0 -221 75 -356q78 -140 195 -140t195 140q75 135 75 356q0 223 -75 358q-78 140 -195 140t-195 -140 q-75 -135 -75 -358z" />
<glyph unicode="1" horiz-adv-x="759" d="M-2 1231l301 209h309v-1440h-366v1098l-185 -127z" />
<glyph unicode="2" horiz-adv-x="1140" d="M-2 0q15 328 362 639q26 21 76.5 65t75.5 66q83 72 143 139q58 70 58 142q0 70 -55.5 115.5t-147.5 45.5q-181 0 -387 -182l-64 291q225 147 492 147q249 0 385.5 -111.5t136.5 -307.5q0 -205 -194 -390l-240 -196q-161 -130 -201 -211h629v-252h-1069z" />
<glyph unicode="3" horiz-adv-x="1126" d="M-4 49v291q186 -107 391 -107h-2q135 0 213 60q72 54 72 143q0 197 -326 197q-9 0 -111 -4v248h29h43q27 -3 39 -3q286 0 289 187q0 64 -49 104q-55 43 -154 43q-174 0 -369 -127l-63 279q196 106 469 106q208 0 354 -90q172 -108 172 -303q0 -213 -174 -307 q223 -101 217 -358q-3 -194 -176 -314q-162 -116 -405 -119q-282 -3 -459 74z" />
<glyph unicode="4" horiz-adv-x="1132" d="M2 287v280l428 645q66 101 66 150q0 18 -17 78h488v-903h172v-250h-172v-287h-363v287h-602zM274 537h330v485z" />
<glyph unicode="5" horiz-adv-x="1198" d="M96 49v291q180 -107 369 -107l-2 -2q46 4 96 11q197 44 197 233q0 128 -109 193q-88 49 -229 49q-138 0 -309 -58l61 781h901l-45 -250h-520l-19 -238q54 4 80 4q250 0 394 -112q165 -125 165 -365q0 -166 -100.5 -293t-267.5 -178q-98 -33 -219 -33h-29q-195 -3 -414 74 z" />
<glyph unicode="6" horiz-adv-x="1204" d="M41 641q0 314 141 545q176 279 492 282q120 3 205 -24q67 -18 182 -84l-68 -289q-136 142 -297 139q-99 -5 -179.5 -91.5t-106.5 -221.5q115 68 260 68q210 0 342 -129q133 -130 133 -334q0 -222 -133 -367q-148 -160 -400 -160q-258 0 -409 160q-162 174 -162 506z M420 469q0 -91 41 -162q50 -84 139 -84t139 84q41 71 41 162q0 94 -43 164q-49 82 -137 82q-89 0 -139 -84q-41 -71 -41 -162z" />
<glyph unicode="7" horiz-adv-x="1132" d="M53 1192v248h1022v-217l-579 -1223h-402l563 1192h-604z" />
<glyph unicode="8" horiz-adv-x="1220" d="M47 387q0 227 193 377q-129 123 -129 287q0 200 153 317q138 105 352 105q199 0 338 -95q154 -109 154 -293q0 -190 -162 -315q230 -140 230 -346q0 -217 -183 -344q-159 -111 -389 -111q-232 0 -381 94q-176 114 -176 324zM373 424q0 -87 57 -141q65 -62 178 -62 q75 0 127 37q60 42 60 115q0 74 -90 133q-6 0 -224 104l-18 11q-90 -84 -90 -197zM449 1106q0 -72 88 -133q58 -37 155 -78q94 76 88 182q-9 144 -178 144q-66 0 -109.5 -33.5t-43.5 -81.5z" />
<glyph unicode="9" horiz-adv-x="1206" d="M37 940q0 229 147 379q149 149 398 149q263 0 407 -159q152 -175 152 -506q0 -369 -150 -584q-173 -244 -512 -244q-195 0 -393 107l70 287q142 -136 309 -136q122 0 198 80.5t93 231.5q-106 -68 -250 -68q-205 0 -336 125q-133 127 -133 338zM395 975 q0 -109 50.5 -177.5t129.5 -68.5q80 0 130.5 68.5t50.5 177.5q0 117 -58 184q-50 62 -123 62q-79 0 -129.5 -70t-50.5 -176z" />
<glyph unicode=":" horiz-adv-x="593" d="M123 0v348h366v-348h-366zM123 668v346h366v-346h-366z" />
<glyph unicode=";" horiz-adv-x="593" d="M82 -176l115 524h364l-205 -524h-274zM123 670v344h366v-344h-366z" />
<glyph unicode="&#x3c;" horiz-adv-x="1130" d="M49 408v229l1036 438v-295l-659 -258l659 -258v-295z" />
<glyph unicode="=" horiz-adv-x="1142" d="M66 162v256h1017v-256h-1017zM66 586v254h1017v-254h-1017z" />
<glyph unicode="&#x3e;" horiz-adv-x="1130" d="M59 -31v295l660 258l-660 258v295l1037 -438v-229z" />
<glyph unicode="?" horiz-adv-x="1087" d="M53 1321q228 147 502 147q235 0 371 -92q149 -101 149 -307q0 -205 -235 -391q-110 -86 -127 -103q-36 -42 -39 -120h-322v16q0 182 68 274q27 38 213 195q72 63 72 135q0 61 -51.5 100t-137.5 39q-116 0 -219 -53q-83 -44 -180 -131zM332 0v348h366v-348h-366z" />
<glyph unicode="@" horiz-adv-x="1724" d="M57 702q0 336 248 553q239 211 580 211q356 0 563 -192q194 -182 194 -443q0 -210 -153 -366q-150 -156 -363 -156q-168 0 -192 101q-91 -97 -217 -97q-139 0 -221 99q-80 92 -80 231q0 175 114 313q125 146 295 146q124 0 205 -78l14 53h238q-106 -451 -113 -483 q-2 -10 -2 -25q0 -51 39 -51q14 0 37 10q80 35 129 125q45 83 45 178q0 210 -164 330q-143 107 -364 107q-257 0 -432 -158q-172 -156 -172 -416q0 -177 86 -301q89 -130 254 -182q105 -31 249 -31q179 0 300 33q131 36 274 119v-230q-257 -127 -588 -127q-358 0 -563 181 q-240 206 -240 546zM680 657q0 -135 92 -135q81 0 127 88q41 74 41 160q0 127 -92 127q-77 0 -127 -86q-41 -74 -41 -154z" />
<glyph unicode="A" horiz-adv-x="1404" d="M-53 0l448 1184q29 82 29 125q0 49 -29 131h477l549 -1440h-405l-115 332h-489l-113 -332h-352zM498 578h319l-162 466z" />
<glyph unicode="B" horiz-adv-x="1363" d="M76 1440h604q526 0 526 -375q0 -213 -192 -295q266 -82 266 -358q0 -210 -172 -318q-143 -94 -365 -94h-593v1217q0 96 -74 223zM512 250h131q272 0 272 190q0 189 -276 189h-127v-379zM512 868h102q234 0 234 168q0 160 -256 160h-80v-328z" />
<glyph unicode="C" horiz-adv-x="1298" d="M61 707q0 343 226 555q219 204 567 204q221 0 395 -73l-63 -281q-131 107 -299 107q-209 0 -336 -148q-119 -137 -119 -350q0 -223 119 -354q124 -142 340 -142q170 0 332 84v-282q-152 -50 -381 -50q-346 0 -559 189q-222 201 -222 541z" />
<glyph unicode="D" horiz-adv-x="1495" d="M66 1440h471q237 0 411 -54q492 -150 492 -647q0 -262 -140 -443t-397 -253q-148 -43 -383 -43h-383v1219q0 94 -71 221zM504 248h80q232 0 357.5 127t125.5 360q0 216 -129 339.5t-352 123.5h-82v-950z" />
<glyph unicode="E" horiz-adv-x="1210" d="M63 1440h1043v-248h-606v-322h573v-247h-573v-371h633v-252h-998v1219q0 89 -72 221z" />
<glyph unicode="F" horiz-adv-x="1142" d="M78 1440h1016v-248h-578v-322h545v-247h-545v-623h-366v1219q0 92 -72 221z" />
<glyph unicode="G" horiz-adv-x="1460" d="M74 707q0 339 221 548q220 211 573 211q295 0 478 -88q-15 -72 -64 -276q-165 119 -381 119q-205 0 -332 -142q-123 -141 -123 -358q0 -234 125 -365q127 -133 334 -133q63 0 99 8v349h-242l-43 249h641v-780q-256 -74 -481 -74h-17q-373 6 -581 205q-207 201 -207 527z " />
<glyph unicode="H" horiz-adv-x="1523" d="M78 1440h436v-570h520v570h367v-1440h-367v623h-520v-623h-364v1219q0 89 -72 221z" />
<glyph unicode="I" horiz-adv-x="626" d="M82 1440h438v-1440h-366v1219q0 89 -72 221z" />
<glyph unicode="J" horiz-adv-x="872" d="M49 20q1 22 1 88t-1 177q104 -56 188 -56h9q168 6 168 201v789q0 89 -72 221h436v-1047q0 -202 -116 -309t-332 -107q-159 0 -281 43z" />
<glyph unicode="K" horiz-adv-x="1361" d="M74 1440h436v-557l440 557h410l-559 -654l616 -786h-454l-453 612v-612h-367v1219q0 92 -69 221z" />
<glyph unicode="L" horiz-adv-x="1093" d="M68 1440h436v-1188h596v-252h-961v1219q0 88 -71 221z" />
<glyph unicode="M" horiz-adv-x="1912" d="M72 1440h585l301 -1008l302 1008h524v-1440h-354v989l-297 -989h-349l-297 987v-987h-344v1219q0 91 -71 221z" />
<glyph unicode="N" horiz-adv-x="1540" d="M80 1440h538l435 -948v948h352v-1440h-453l-456 995v-995h-344v1219q0 86 -72 221z" />
<glyph unicode="O" horiz-adv-x="1595" d="M68 721q0 318 196 526q206 221 539 221q332 0 538 -221q197 -209 197 -526q0 -314 -197 -526q-208 -220 -538 -220q-331 0 -539 220q-196 211 -196 526zM440 723q0 -216 101 -356q103 -142 262 -142q157 0 260 142q100 138 100 356q0 216 -100 354q-103 142 -260 142 q-159 0 -262 -142q-101 -140 -101 -354z" />
<glyph unicode="P" horiz-adv-x="1243" d="M82 1440h600q230 0 379 -101q172 -117 172 -329q0 -221 -143 -340q-150 -129 -441 -129h-131v-541h-364v1219q0 89 -72 221zM518 784h105q245 0 245 211q0 200 -243 203h-64h-43v-414z" />
<glyph unicode="Q" horiz-adv-x="1589" d="M82 721q0 319 201 532q203 215 534 215q329 0 535 -215q200 -209 200 -532q0 -224 -104 -404q-105 -181 -293 -270l299 -274h-459l-194 200q-325 6 -527 226q-192 207 -192 522zM453 721q0 -223 102 -361q104 -137 262 -137q159 0 262 139q103 142 103 359t-103 356 q-103 142 -262 142q-162 0 -264 -144q-100 -138 -100 -354z" />
<glyph unicode="R" horiz-adv-x="1343" d="M78 1440h624q221 0 359 -78q170 -99 170 -307q0 -279 -270 -355q82 -46 149 -168q217 -403 283 -532h-418l-111 229q-119 247 -127 260q-38 67 -65 84q-47 29 -109 29h-49v-602h-362v1217q0 96 -74 223zM514 842h119q235 0 235 182q0 172 -245 172h-101h-8v-354z" />
<glyph unicode="S" horiz-adv-x="1202" d="M74 1020q0 21 4 57q21 180 178 289q144 100 373 100q276 0 454 -106l-63 -279q-179 124 -371 127h-10q-195 0 -215 -118q-1 -8 -1 -15q0 -85 159 -137q34 -10 102 -30.5t102 -30.5q127 -46 187 -95q166 -129 166 -327q0 -212 -144 -338q-157 -142 -456 -142 q-227 0 -433 84q-16 22 -16 312q202 -135 410 -135q272 0 272 174q0 100 -182 165q-106 31 -203 64q-119 40 -186 98q-127 109 -127 283z" />
<glyph unicode="T" horiz-adv-x="1142" d="M-23 1440h1186l-43 -248h-366v-1192h-365v1192h-366z" />
<glyph unicode="U" horiz-adv-x="1474" d="M47 1440h436v-918q0 -149 84 -227q71 -62 176 -62q107 0 175 62q83 77 83 227v918h365v-824q0 -194 -47 -309q-66 -156 -218 -244t-358 -88t-357.5 88t-219.5 244q-47 115 -47 309v603q0 89 -72 221z" />
<glyph unicode="V" horiz-adv-x="1341" d="M-55 1440h405l336 -1037l336 1037h350l-516 -1440h-393z" />
<glyph unicode="W" horiz-adv-x="1972" d="M-10 1440h389l221 -1002l209 1002h375l209 -1002l221 1002h389l-383 -1440h-412l-213 979l-211 -979h-411z" />
<glyph unicode="X" horiz-adv-x="1339" d="M-66 0l472 748l-420 692h442l258 -465l246 465h387l-418 -692l477 -748h-454l-297 510l-291 -510h-402z" />
<glyph unicode="Y" horiz-adv-x="1269" d="M-55 1440h426l264 -541l262 541h373l-479 -881v-559h-367v565z" />
<glyph unicode="Z" horiz-adv-x="1181" d="M61 0v221l623 971h-580v248h1024v-219l-622 -969h680l-45 -252h-1080z" />
<glyph unicode="[" horiz-adv-x="634" d="M104 -289v1850h494v-263h-160v-1325h160v-262h-494z" />
<glyph unicode="\" horiz-adv-x="827" d="M4 1468h270l564 -1493h-273z" />
<glyph unicode="]" horiz-adv-x="634" d="M45 -27h160v1325h-160v263h496v-1850h-496v262z" />
<glyph unicode="^" horiz-adv-x="1230" d="M82 692l416 746h237l416 -746h-315l-220 412l-217 -412h-317z" />
<glyph unicode="_" horiz-adv-x="1069" d="M-27 -156h1137v-116h-1137v116z" />
<glyph unicode="`" horiz-adv-x="540" d="M-16 1440h362l205 -314h-246z" />
<glyph unicode="a" horiz-adv-x="1095" d="M59 297q0 219 217 313q155 70 408 70q-15 145 -192 145q-139 0 -302 -100l-59 227q174 101 416 101q222 0 343.5 -112.5t121.5 -326.5v-614h-312v82q-114 -105 -274 -105q-155 0 -256 82q-111 85 -111 238zM375 326q0 -109 121 -109q63 0 117 33.5t71 87.5q6 21 6 59v80 h-20h-11q-284 0 -284 -151z" />
<glyph unicode="b" horiz-adv-x="1257" d="M66 1440h401v-475q113 88 264 88q229 0 361 -156q125 -146 125 -379q0 -225 -125 -377q-135 -164 -355 -164q-164 0 -278 105v-82h-324v1227q0 62 -16 112q-17 39 -53 101zM463 516q0 -119 43 -201q54 -106 162 -106q107 0 161 106q43 82 43 201t-43 201 q-54 106 -161 106q-108 0 -162 -106q-43 -82 -43 -201z" />
<glyph unicode="c" horiz-adv-x="997" d="M51 508q0 238 170 391q171 154 418 154q210 0 350 -76q-31 -152 -53 -244q-48 41 -122 67q-71 26 -133 25h-5q-127 -6 -205 -90t-78 -221q0 -152 86 -235q76 -76 209 -76q107 0 275 71v-245q-164 -54 -330 -54q-255 0 -420 142q-162 143 -162 391z" />
<glyph unicode="d" horiz-adv-x="1220" d="M51 506q0 231 133 385q138 164 369 164q152 0 246 -82l2 256q0 85 -70 213h399v-1442h-321v84q-107 -107 -279 -107h-4q-217 3 -350 160q-125 146 -125 369zM393 518q0 -120 45 -203q55 -104 160 -104q110 0 162 104q45 80 45 203q0 121 -45 201q-54 106 -160 106 q-108 0 -162 -106q-45 -80 -45 -201z" />
<glyph unicode="e" horiz-adv-x="1097" d="M59 512q0 236 142 387q142 154 374 154q233 0 365 -138q135 -138 135 -368q0 -52 -10 -117h-662q34 -227 291 -227q153 0 314 112v-262q-165 -76 -375 -76q-256 0 -412 138q-162 143 -162 397zM410 643h331q-18 184 -163 184q-131 0 -168 -184z" />
<glyph unicode="f" horiz-adv-x="796" d="M-16 1030h196v31q0 176 101 289q100 112 282 112q158 0 281 -63l-62 -248q-76 76 -168 76q-102 0 -102 -125v-72h244l-37 -221h-207v-809h-332v809h-157z" />
<glyph unicode="g" horiz-adv-x="1191" d="M49 506q0 225 135 381q141 166 359 166q161 0 266 -105v82h321v-817q0 -160 -28 -266q-53 -188 -215 -279q-145 -80 -350 -80q-208 0 -365 68v270q166 -108 338 -108q281 0 299 284q-93 -106 -274 -106q-228 0 -357 141t-129 369zM393 524q0 -116 43 -198 q56 -103 162 -103t162 103q43 82 43 198q0 115 -43 197q-55 104 -162 104q-108 0 -160 -104q-45 -80 -45 -197z" />
<glyph unicode="h" horiz-adv-x="1218" d="M57 1440h400v-465q128 78 284 78q189 0 289 -110.5t100 -313.5v-629h-331v610q0 209 -148 209q-79 0 -135.5 -61t-56.5 -148l-2 -610h-332v1227q0 63 -19 112q-7 22 -49 101z" />
<glyph unicode="i" horiz-adv-x="567" d="M61 1030h402v-1030h-332v827q0 78 -70 203zM131 1139v301h332v-301h-332z" />
<glyph unicode="j" horiz-adv-x="700" d="M-53 -127q105 -57 178 -57q137 0 137 159v850q0 85 -69 205h401v-1065q0 -192 -119 -293q-107 -94 -291 -94q-128 0 -237 47v248zM262 1139v301h332v-301h-332z" />
<glyph unicode="k" d="M55 1440h402v-748l272 338h369l-377 -424l426 -606h-402l-288 455v-455h-332v1227q0 85 -70 213z" />
<glyph unicode="l" horiz-adv-x="579" d="M59 1440h402v-1440h-332v1227q0 91 -70 213z" />
<glyph unicode="m" horiz-adv-x="1787" d="M59 1030h392v-84q107 107 262 107q192 0 295 -140q134 140 313 140q375 0 375 -424v-629h-330v647q0 170 -115 170q-77 0 -124.5 -58.5t-47.5 -142.5v-616h-331v649q0 168 -115 168q-85 0 -131 -69q-41 -59 -41 -148l-2 -600h-330v817q0 63 -18 113q-10 23 -52 100z" />
<glyph unicode="n" horiz-adv-x="1220" d="M70 1030h391v-86q115 109 278 109h2q194 0 297 -103.5t103 -304.5v-645h-332v643q0 85 -38 129.5t-107 44.5q-83 0 -138 -62t-55 -149v-606h-332v817q0 88 -47 174z" />
<glyph unicode="o" horiz-adv-x="1185" d="M47 516q0 237 156 387q158 152 399 152t399 -152q156 -150 156 -387q0 -239 -156 -389t-399 -150t-399 150t-156 389zM387 516q0 -141 60.5 -227t154.5 -86t154.5 86t60.5 227q0 139 -61 225t-154 86t-154 -86t-61 -225z" />
<glyph unicode="p" horiz-adv-x="1232" d="M63 1030h394v-90q110 113 278 113q220 0 352 -156q127 -151 127 -371q0 -230 -133 -387q-140 -162 -368 -162q-152 0 -248 78v-454h-332v1216q0 63 -18 113q-9 25 -52 100zM461 514q0 -119 43 -201q54 -106 162 -106q107 0 161 106q43 82 43 201t-43 201 q-54 106 -161 106q-108 0 -162 -106q-43 -82 -43 -201z" />
<glyph unicode="q" horiz-adv-x="1193" d="M39 524q0 213 135 369q139 160 344 160q171 0 281 -113v90h321v-1429h-332v458q-107 -82 -247 -82q-244 0 -377 154q-125 143 -125 393zM383 530q0 -127 41 -211q52 -112 164 -112q107 0 162 104q43 82 43 201q0 121 -43 203q-52 106 -162 106q-101 0 -158 -100 q-47 -83 -47 -191z" />
<glyph unicode="r" horiz-adv-x="907" d="M63 1030h394v-102q116 125 243 125q115 0 234 -72l-72 -287l-33 39q-56 62 -157 62q-207 0 -207 -283v-512h-332v817q0 65 -18 111q-14 32 -52 102z" />
<glyph unicode="s" horiz-adv-x="903" d="M74 717q0 165 129 256q113 82 291 82q194 0 368 -86l-59 -232q-151 97 -283 97q-120 0 -129 -64v-5q-1 -25 35 -43q40 -20 168 -56q104 -29 166 -72q131 -88 131 -260q0 -136 -90 -232q-119 -125 -371 -125q-174 0 -344 66v264q154 -101 293 -104h20q156 0 158 92 q0 35 -42 59.5t-165 59.5q-111 34 -174 80q-102 76 -102 223z" />
<glyph unicode="t" horiz-adv-x="765" d="M-12 1030h198v221l330 119v-340h279l-39 -223h-238v-471q0 -125 111 -125q69 0 164 59v-250q-98 -43 -218 -43q-389 0 -389 388v442h-159z" />
<glyph unicode="u" horiz-adv-x="1189" d="M51 1030h400v-651q0 -168 139 -168q84 0 140 64.5t56 152.5l2 602h330v-1030h-321v84q-110 -107 -281 -107q-192 0 -293.5 113t-101.5 313v414q0 26 -4 62q-6 35 -27 79q-7 18 -39 72z" />
<glyph unicode="v" horiz-adv-x="1054" d="M-29 1030h363l225 -643l209 643h332l-402 -1030h-323z" />
<glyph unicode="w" horiz-adv-x="1714" d="M-23 1030h369l193 -637l176 637h309l176 -637l191 637h370l-375 -1030h-335l-181 625l-184 -625h-334z" />
<glyph unicode="x" horiz-adv-x="1071" d="M-29 0l336 535l-307 495h391l176 -317l168 317h344l-299 -495l353 -535h-404l-205 350l-198 -350h-355z" />
<glyph unicode="y" horiz-adv-x="1093" d="M-18 1030h387l231 -629l203 629h344l-418 -1063q-75 -195 -154 -274q-105 -105 -288 -105q-132 0 -224 50v251q94 -67 179 -67q80 0 120 55q29 42 54 129z" />
<glyph unicode="z" horiz-adv-x="944" d="M39 0v168l440 641h-409v221h845v-166l-438 -643h486l-39 -221h-885z" />
<glyph unicode="{" horiz-adv-x="612" d="M12 514v244q156 0 156 153v357q0 145 113 227q97 72 229 72h119v-228h-58q-53 0 -67 -36q-8 -19 -8 -82v-338q0 -179 -136 -250q54 -15 93 -78q43 -70 43 -180v-324q0 -66 8 -82q15 -37 67 -37h58v-227h-119q-137 0 -234 72q-108 83 -108 227v342q0 168 -156 168z" />
<glyph unicode="|" horiz-adv-x="436" d="M86 -25v1590h268v-1590h-268z" />
<glyph unicode="}" horiz-adv-x="612" d="M-8 -68h57q53 0 68 37q8 16 8 82v324q0 199 135 266q-53 17 -92 78q-43 67 -43 164v338q0 63 -8 82q-14 36 -68 36h-57v228h119q132 0 229 -72q111 -83 111 -227v-357q0 -153 155 -153v-244q-155 0 -155 -168v-342q0 -144 -109 -227q-97 -72 -231 -72h-119v227z" />
<glyph unicode="~" horiz-adv-x="1155" d="M86 336v278q109 109 244 109q100 0 243 -64q141 -63 215 -63q110 0 168 37q38 23 119 104v-278q-114 -117 -297 -117q-103 0 -243 64q-138 63 -213 63q-82 0 -138 -39q-24 -20 -98 -94z" />
<glyph unicode="&#xa1;" horiz-adv-x="757" d="M193 -387l32 983h310l32 -983h-374zM197 707v348h364v-348h-364z" />
<glyph unicode="&#xa2;" horiz-adv-x="958" d="M51 506q0 241 168 393q169 156 418 156q25 0 39 -2l47 121h229l-59 -158q24 -6 94 -35l-51 -246q-50 35 -125 66l-221 -584q43 -14 98 -14q107 0 275 73v-249q-162 -52 -332 -52q-48 0 -127 11l-41 -111h-230l68 180q-250 142 -250 451zM393 512q0 -78 25 -145l166 440 q-191 -65 -191 -295z" />
<glyph unicode="&#xa3;" horiz-adv-x="1234" d="M96 0v250q91 0 129 47q31 42 31 133v193h-98v247h98v170q0 192 141 308.5t385 117.5q229 3 424 -106l-63 -279q-186 127 -338 127q-92 0 -141 -49q-43 -40 -43 -108v-181h452v-247h-452v-191q0 -124 -39 -180h589v-252h-1075z" />
<glyph unicode="&#xa4;" horiz-adv-x="1460" d="M158 248l125 119q-90 131 -90 282q0 158 94 289l-125 117l157 149l125 -119q139 86 295 86q163 0 303 -90l123 119l158 -149l-127 -121q88 -128 88 -281q0 -156 -90 -287l123 -118l-156 -150l-125 119q-134 -82 -297 -82q-160 0 -299 86l-125 -119zM442 649 q0 -117 86 -200q86 -80 213 -80q125 0 207 82q86 83 86 198q0 120 -86 203q-82 82 -207 82q-130 0 -215 -82q-84 -84 -84 -203z" />
<glyph unicode="&#xa5;" horiz-adv-x="1288" d="M-49 1440h426l264 -529l262 529h373l-336 -617h209l-43 -207h-301l-8 -14v-153h352l-43 -201h-309v-248h-367v248h-303l-45 201h348v159l-4 8h-299l-45 207h209z" />
<glyph unicode="&#xa6;" horiz-adv-x="532" d="M133 -25v562h277v-562h-277zM133 903v561h277v-561h-277z" />
<glyph unicode="&#xa7;" horiz-adv-x="958" d="M23 588q0 157 127 252q-119 85 -119 250q0 183 143 284q125 94 320 94q225 0 387 -96l-60 -260q-161 112 -311 115h-8q-55 0 -101 -19q-55 -27 -55 -78q0 -54 123 -94q20 -6 79.5 -24.5t90.5 -28.5q106 -35 154 -74q136 -106 133 -258q0 -163 -111 -258 q107 -107 107 -246q0 -175 -121 -284q-131 -119 -377 -119q-178 0 -381 78v287l61 -39q128 -84 287 -84q201 0 201 123q0 75 -137 118q-143 45 -170 54q-102 37 -154 81q-108 92 -108 226zM317 664q0 -48 54 -76q15 -9 213 -76q51 26 51 82q0 36 -49 70q-36 27 -201 75 q-68 -27 -68 -75z" />
<glyph unicode="&#xa8;" horiz-adv-x="573" d="M-68 1124v291h306v-291h-306zM344 1124v291h305v-291h-305z" />
<glyph unicode="&#xa9;" horiz-adv-x="1609" d="M55 723q0 309 224 526q227 219 538 219q315 0 537 -219q223 -216 223 -526q0 -312 -223 -528q-223 -220 -537 -220q-313 0 -541 220q-221 218 -221 528zM248 723q0 -232 166 -395q168 -162 403 -162t400 162q167 161 167 395q0 230 -167 391q-167 164 -400 164t-403 -164 q-166 -163 -166 -391zM442 717q0 174 117 282q117 111 299 111q118 0 217 -45l-43 -160q-65 62 -160 62q-92 0 -147 -67.5t-55 -178.5q0 -115 54.5 -178.5t149.5 -65.5q98 0 187 68l-2 -162q-76 -49 -209 -49q-185 0 -296.5 103.5t-111.5 279.5z" />
<glyph unicode="&#xaa;" horiz-adv-x="698" d="M16 987q0 101 93 160q107 66 299 57q9 99 -95 99q-129 0 -211 -58l-43 152q126 69 285 69q143 0 225 -67q88 -76 88 -215v-391h-233v51q-66 -66 -180 -66q-98 0 -163 58t-65 151zM238 993q0 -65 71 -65q109 0 109 116v46q-85 1 -132.5 -26.5t-47.5 -70.5z" />
<glyph unicode="&#xab;" horiz-adv-x="1181" d="M49 555l268 414h357l-250 -414l250 -414h-357zM551 555l270 414h357l-252 -414l252 -414h-357z" />
<glyph unicode="&#xac;" horiz-adv-x="1284" d="M76 594v260h1120v-631h-295v371h-825z" />
<glyph unicode="&#xad;" horiz-adv-x="804" d="M70 434v242h661v-242h-661z" />
<glyph unicode="&#xae;" horiz-adv-x="1609" d="M55 723q0 309 224 526q227 219 538 219q315 0 537 -219q223 -216 223 -526q0 -312 -223 -528q-223 -220 -537 -220q-313 0 -541 220q-221 218 -221 528zM248 723q0 -232 166 -395q168 -162 403 -162t400 162q167 161 167 395q0 230 -167 391q-167 164 -400 164t-403 -164 q-166 -163 -166 -391zM506 1094h325q275 0 275 -205q0 -144 -131 -184q41 -18 65 -74q35 -72 134 -283h-232l-108 254q-21 49 -70 49h-12v-303h-205v623q0 36 -41 123zM754 768h55q62 0 80 59q6 21 6 47q-3 101 -102 101h-39v-207z" />
<glyph unicode="&#xaf;" horiz-adv-x="571" d="M-39 1165v189h662v-189h-662z" />
<glyph unicode="&#xb0;" horiz-adv-x="864" d="M55 1112q0 146 113 250q112 106 268 106q160 0 269 -106q112 -103 112 -250q0 -149 -110 -250q-111 -102 -271 -102q-154 0 -268 102q-113 101 -113 250zM289 1112q0 -57 42 -96t105 -39q62 0 105 39t43 96q0 59 -43 99t-105 40q-63 0 -105 -39.5t-42 -99.5z" />
<glyph unicode="&#xb1;" horiz-adv-x="1175" d="M61 561v254h396v221h278v-221h393v-254h-393v-229h-278v229h-396zM63 0v252h1065v-252h-1065z" />
<glyph unicode="&#xb2;" horiz-adv-x="688" d="M6 621q9 132 60 217q49 87 151 176q74 54 170 153q16 26 16 47q0 58 -81 58q-67 0 -129 -39q-30 -20 -103 -84l-51 225q149 94 303 94h2q147 0 233.5 -69t86.5 -185q0 -123 -117 -231q-78 -56 -207 -170h319v-192h-653z" />
<glyph unicode="&#xb3;" horiz-adv-x="706" d="M27 1419q125 76 292 76q143 0 232.5 -70.5t89.5 -185.5q-18 -132 -88 -172q116 -60 113 -205q-3 -118 -99 -196q-92 -75 -227 -84v-2q-169 -9 -311 53l2 211q106 -81 239 -72l6 2q131 9 134 92q3 84 -158 90q-2 0 -13 -0.5l-33 -1.5t-46 -2v181l106 -7q122 9 119 88 q-3 75 -102 78q-83 3 -213 -71z" />
<glyph unicode="&#xb4;" horiz-adv-x="559" d="M4 1124l207 316h360l-319 -316h-248z" />
<glyph unicode="&#xb5;" horiz-adv-x="1214" d="M57 1030h398v-627q0 -186 151 -186q84 0 135.5 60t51.5 167v586h331v-1030h-321v51q-82 -76 -199 -76q-87 0 -149 35v-409h-330v1216q0 86 -68 213z" />
<glyph unicode="&#xb6;" horiz-adv-x="1329" d="M-25 1051q0 160 117 274q118 115 283 115h807v-1698h-320v1442h-147v-1442h-320v920h-20q-169 3 -283 114q-117 114 -117 275z" />
<glyph unicode="&#xb7;" horiz-adv-x="563" d="M100 383v348h367v-348h-367z" />
<glyph unicode="&#xb8;" horiz-adv-x="684" d="M68 -279q80 -51 184 -51q117 0 117 74q0 76 -97 76q-31 0 -86 -19l-41 68l117 131h152l-90 -90q14 2 26 2q115 9 178 -39q56 -47 56 -123q0 -201 -277 -201q-146 0 -239 43v129z" />
<glyph unicode="&#xb9;" horiz-adv-x="509" d="M0 1313l190 127h211v-832h-262v563l-92 -61z" />
<glyph unicode="&#xba;" horiz-adv-x="784" d="M25 1122q0 154 102 248q104 98 266 98t266 -98q105 -94 105 -248q0 -149 -105 -248q-107 -96 -266 -96t-266 96q-102 99 -102 248zM262 1122q0 -85 37.5 -135.5t93.5 -50.5t93.5 50.5t37.5 135.5q0 89 -41 142q-38 47 -90 47t-90 -47q-41 -53 -41 -142z" />
<glyph unicode="&#xbb;" horiz-adv-x="1181" d="M20 141l250 414l-250 414h357l268 -414l-268 -414h-357zM524 141l250 414l-250 414h357l268 -414l-268 -414h-357z" />
<glyph unicode="&#xbc;" horiz-adv-x="1533" d="M0 1309l190 133h211v-856h-262v579l-92 -63zM39 -55l1028 1525h248l-1028 -1525h-248zM725 145v174q146 223 250 396q26 39 26 69q0 20 -16 70h395v-553h95v-156h-95v-145h-258v145h-397zM909 301h213v352z" />
<glyph unicode="&#xbd;" horiz-adv-x="1583" d="M0 1309l190 133h211v-856h-262v579l-92 -63zM41 -55l1028 1525h248l-1028 -1525h-248zM874 -2q9 134 60 223q53 94 151 180q79 64 170 158q17 31 17 49q0 60 -82 60q-64 0 -129 -41q-35 -24 -105 -86l-49 229q146 98 301 98h4q146 0 232 -71.5t86 -190.5 q0 -124 -117 -235q-85 -67 -205 -176h320v-197h-654z" />
<glyph unicode="&#xbe;" horiz-adv-x="1703" d="M27 1419q125 76 292 76q143 0 232.5 -70.5t89.5 -185.5q-18 -132 -88 -172q116 -60 113 -205q-3 -118 -99 -196q-92 -75 -227 -84v-2q-169 -9 -311 53l2 211q106 -81 239 -72l6 2q131 9 134 92q3 84 -158 90q-2 0 -13 -0.5l-33 -1.5t-46 -2v181l106 -7q122 9 119 88 q-3 75 -102 78q-83 3 -213 -71zM193 -55l1028 1525h247l-1028 -1525h-247zM887 145v174q276 421 276 465q0 20 -16 70h395v-553h94v-156h-94v-145h-258v145h-397zM1071 301h213v352z" />
<glyph unicode="&#xbf;" horiz-adv-x="1087" d="M53 -14q0 202 234 389q108 85 127 104q38 41 41 121h319v-16q0 -183 -67 -277q-25 -35 -211 -192q-74 -62 -74 -135q0 -61 51 -100.5t137 -39.5q122 0 221 51q72 38 179 134l65 -293q-231 -146 -502 -146q-237 0 -370 92q-150 102 -150 308zM430 705v350h365v-350h-365z " />
<glyph unicode="&#xc0;" horiz-adv-x="1406" d="M-53 0l448 1184q29 82 29 125q0 55 -27 131h477l547 -1440h-405l-113 332h-489l-115 -332h-352zM299 1534l231 317h281l217 -317h-233l-129 137l-131 -137h-236zM498 578h319l-160 466z" />
<glyph unicode="&#xc1;" horiz-adv-x="1406" d="M-53 0l448 1184q29 82 29 125q0 55 -27 131h477l547 -1440h-405l-113 332h-489l-115 -332h-352zM418 1534l207 317h360l-321 -317h-246zM498 578h319l-160 466z" />
<glyph unicode="&#xc2;" horiz-adv-x="1406" d="M-53 0l448 1184q29 82 29 125q0 55 -27 131h477l547 -1440h-405l-113 332h-489l-115 -332h-352zM295 1534l231 317h281l217 -317h-233l-129 137l-132 -137h-235zM498 578h319l-160 466z" />
<glyph unicode="&#xc3;" horiz-adv-x="1406" d="M-53 0l448 1184q29 82 29 125q0 55 -27 131h477l547 -1440h-405l-113 332h-489l-115 -332h-352zM305 1534q0 136 72 211q65 65 168 65q82 0 170 -36q90 -37 123 -37q57 0 57 84h174q6 -136 -57 -211.5t-172 -75.5q-85 0 -172 37q-85 39 -121 39q-68 0 -68 -76h-174z M498 578h319l-160 466z" />
<glyph unicode="&#xc4;" horiz-adv-x="1406" d="M-53 0l448 1184q29 82 29 125q0 55 -27 131h477l547 -1440h-405l-113 332h-489l-115 -332h-352zM303 1542v293h305v-293h-305zM498 578h319l-160 466zM715 1542v293h305v-293h-305z" />
<glyph unicode="&#xc5;" horiz-adv-x="1406" d="M-53 0l448 1184q29 82 29 125q0 55 -27 131h477l547 -1440h-405l-113 332h-489l-115 -332h-352zM416 1749q0 99 71 170q75 72 177 72q100 0 172 -72q71 -71 71 -170q0 -97 -71 -168q-70 -70 -172 -70q-104 0 -177 70q-71 71 -71 168zM498 578h319l-160 466zM590 1749 q0 -70 74 -70q71 0 71 70q0 72 -71 72q-74 0 -74 -72z" />
<glyph unicode="&#xc6;" horiz-adv-x="1929" d="M-37 0l619 1188q49 94 49 162q0 33 -13 90h1199v-248h-660l47 -322h580v-247h-545l53 -371h551v-252h-889l-45 332h-432l-160 -332h-354zM598 578h276l-61 456z" />
<glyph unicode="&#xc7;" horiz-adv-x="1294" d="M59 709q0 345 228 553q216 204 567 204q231 0 393 -73l-61 -279q-125 107 -301 107q-209 0 -336 -148q-117 -138 -117 -352q0 -224 117 -356q125 -140 342 -140q169 0 332 82v-280q-155 -50 -373 -50l-68 -69q46 4 62 4q200 0 200 -162q0 -203 -276 -203q-147 0 -240 43 v129q80 -51 185 -51q116 0 116 76q0 74 -96 74q-34 0 -86 -19l-43 68l103 119q-302 38 -476 229q-172 193 -172 494z" />
<glyph unicode="&#xc8;" horiz-adv-x="1234" d="M63 1440h1043v-248h-604v-322h571v-247h-571v-371h631v-252h-998v1219q0 89 -72 221zM279 1855h360l205 -317h-246z" />
<glyph unicode="&#xc9;" horiz-adv-x="1210" d="M63 1440h1043v-248h-604v-322h571v-247h-571v-371h631v-252h-998v1219q0 89 -72 221zM385 1530l207 317h360l-321 -317h-246z" />
<glyph unicode="&#xca;" horiz-adv-x="1236" d="M63 1440h1043v-248h-604v-322h571v-247h-571v-371h631v-252h-998v1219q0 89 -72 221zM248 1536l229 315h281l219 -315h-234l-129 135l-133 -135h-233z" />
<glyph unicode="&#xcb;" horiz-adv-x="1234" d="M63 1440h1043v-248h-604v-322h571v-247h-571v-371h631v-252h-998v1219q0 89 -72 221zM248 1542v293h305v-293h-305zM659 1542v293h306v-293h-306z" />
<glyph unicode="&#xcc;" horiz-adv-x="610" d="M-27 1860h363l205 -318h-246zM82 1440h438v-1440h-366v1219q0 89 -72 221z" />
<glyph unicode="&#xcd;" horiz-adv-x="610" d="M57 1542l205 318h361l-320 -318h-246zM82 1440h438v-1440h-366v1219q0 89 -72 221z" />
<glyph unicode="&#xce;" horiz-adv-x="575" d="M-53 1536l229 315h283l217 -315h-234l-129 135l-133 -135h-233zM82 1440h438v-1440h-366v1219q0 89 -72 221z" />
<glyph unicode="&#xcf;" horiz-adv-x="610" d="M-49 1542v293h305v-293h-305zM82 1440h438v-1440h-366v1219q0 89 -72 221zM362 1542v293h306v-293h-306z" />
<glyph unicode="&#xd0;" horiz-adv-x="1495" d="M-16 829h155v390q0 96 -73 221h471q237 0 411 -54q492 -150 492 -647q0 -262 -140 -443t-397 -253q-148 -43 -383 -43h-381v582h-112zM504 248h80q232 0 357.5 127t125.5 360q0 217 -127.5 340t-353.5 123h-82v-369h325l-43 -247h-282v-334z" />
<glyph unicode="&#xd1;" horiz-adv-x="1515" d="M80 1440h538l435 -948v948h354v-1440h-455l-456 995v-995h-344v1219q0 86 -72 221zM383 1534q0 136 72 211q64 67 168 67q84 0 170 -38q93 -37 122 -37q60 0 60 84h172q6 -136 -57 -210.5t-170 -74.5q-84 0 -177 37q-84 37 -118 37q-68 0 -68 -76h-174z" />
<glyph unicode="&#xd2;" horiz-adv-x="1583" d="M68 721q0 318 196 526q206 221 539 221q332 0 538 -221q197 -209 197 -526q0 -314 -197 -526q-208 -220 -538 -220q-331 0 -539 220q-196 211 -196 526zM440 723q0 -216 101 -356q103 -142 262 -142q157 0 260 142q100 138 100 356q0 216 -100 354q-103 142 -260 142 q-159 0 -262 -142q-101 -140 -101 -354zM467 1860h360l205 -318h-246z" />
<glyph unicode="&#xd3;" horiz-adv-x="1583" d="M68 721q0 318 196 526q206 221 539 221q332 0 538 -221q197 -209 197 -526q0 -314 -197 -526q-208 -220 -538 -220q-331 0 -539 220q-196 211 -196 526zM440 723q0 -216 101 -356q103 -142 262 -142q157 0 260 142q100 138 100 356q0 216 -100 354q-103 142 -260 142 q-159 0 -262 -142q-101 -140 -101 -354zM504 1542l207 318h360l-321 -318h-246z" />
<glyph unicode="&#xd4;" horiz-adv-x="1585" d="M68 721q0 318 196 526q206 221 539 221q332 0 538 -221q197 -209 197 -526q0 -314 -197 -526q-208 -220 -538 -220q-331 0 -539 220q-196 211 -196 526zM432 1534l232 317h280l217 -317h-231l-129 137l-133 -137h-236zM440 723q0 -216 101 -356q103 -142 262 -142 q157 0 260 142q100 138 100 356q0 216 -100 354q-103 142 -260 142q-159 0 -262 -142q-101 -140 -101 -354z" />
<glyph unicode="&#xd5;" horiz-adv-x="1585" d="M68 721q0 318 196 526q206 221 539 221q332 0 538 -221q197 -209 197 -526q0 -314 -197 -526q-208 -220 -538 -220q-331 0 -539 220q-196 211 -196 526zM424 1534q0 136 72 211q65 65 168 65q82 0 170 -36q90 -37 122 -37q58 0 58 84h174q6 -136 -57.5 -211.5 t-172.5 -75.5q-85 0 -172 37q-85 39 -120 39q-68 0 -68 -76h-174zM440 723q0 -216 101 -356q103 -142 262 -142q157 0 260 142q100 138 100 356q0 216 -100 354q-103 142 -260 142q-159 0 -262 -142q-101 -140 -101 -354z" />
<glyph unicode="&#xd6;" horiz-adv-x="1601" d="M68 721q0 318 196 526q206 221 539 221q332 0 538 -221q197 -209 197 -526q0 -314 -197 -526q-208 -220 -538 -220q-331 0 -539 220q-196 211 -196 526zM438 1542v293h305v-293h-305zM440 723q0 -216 101 -356q103 -142 262 -142q157 0 260 142q100 138 100 356 q0 216 -100 354q-103 142 -260 142q-159 0 -262 -142q-101 -140 -101 -354zM848 1542v293h305v-293h-305z" />
<glyph unicode="&#xd7;" horiz-adv-x="1040" d="M41 227l293 277l-293 276l197 187l292 -277l293 277l199 -187l-293 -276l293 -277l-199 -186l-293 276l-292 -276z" />
<glyph unicode="&#xd8;" horiz-adv-x="1585" d="M66 721q0 316 194 528q207 219 539 219q221 0 393 -102l111 139l151 -112l-117 -146q197 -209 197 -526q0 -314 -197 -526q-208 -220 -538 -220q-225 0 -402 109l-116 -145l-152 112l125 154q-188 209 -188 516zM438 723q0 -128 41 -240l529 656q-88 82 -209 82 q-158 0 -260 -144q-101 -140 -101 -354zM584 313q90 -90 215 -90q161 0 264 146q98 137 98 354q0 139 -45 252z" />
<glyph unicode="&#xd9;" horiz-adv-x="1509" d="M47 1440h438v-918q0 -149 84 -227q68 -62 174 -62t177 62q84 78 84 227l-3 918h367v-824q0 -196 -49 -309q-66 -156 -218 -244t-358 -88t-357.5 88t-217.5 244q-49 113 -49 309v603q0 89 -72 221zM430 1851h361l206 -317h-247z" />
<glyph unicode="&#xda;" horiz-adv-x="1509" d="M47 1440h438v-918q0 -149 84 -227q68 -62 174 -62t177 62q84 78 84 227l-3 918h367v-824q0 -196 -49 -309q-66 -156 -218 -244t-358 -88t-357.5 88t-217.5 244q-49 113 -49 309v603q0 89 -72 221zM469 1534l207 317h360l-321 -317h-246z" />
<glyph unicode="&#xdb;" horiz-adv-x="1509" d="M47 1440h438v-918q0 -149 84 -227q68 -62 174 -62t177 62q84 78 84 227l-3 918h367v-824q0 -196 -49 -309q-66 -156 -218 -244t-358 -88t-357.5 88t-217.5 244q-49 113 -49 309v603q0 89 -72 221zM377 1534l229 317h283l217 -317h-234l-129 137l-131 -137h-235z" />
<glyph unicode="&#xdc;" horiz-adv-x="1472" d="M47 1440h438v-918q0 -149 84 -227q68 -62 174 -62t177 62q84 78 84 227l-3 918h367v-824q0 -196 -49 -309q-66 -156 -218 -244t-358 -88t-357.5 88t-217.5 244q-49 113 -49 309v603q0 89 -72 221zM385 1542v293h305v-293h-305zM797 1542v293h305v-293h-305z" />
<glyph unicode="&#xdd;" horiz-adv-x="1257" d="M-55 1440h426l264 -541l264 541h373l-481 -881v-559h-365v565zM414 1530l204 317h363l-322 -317h-245z" />
<glyph unicode="&#xde;" horiz-adv-x="1220" d="M61 1440h420v-221h181q229 0 380 -103q170 -114 170 -330q0 -217 -141 -340q-151 -127 -442 -127h-131v-319h-365v1219q0 89 -72 221zM498 563h104q249 0 246 211q0 198 -242 201q-25 2 -65 2h-43v-414z" />
<glyph unicode="&#xdf;" horiz-adv-x="1269" d="M119 0v1014q0 210 129 327q139 127 403 127q252 0 389.5 -101.5t137.5 -285.5q0 -202 -189 -288q123 -17 195.5 -119t66.5 -248q-9 -198 -147 -309q-141 -117 -389 -117h-135v248h32q275 0 275 207q0 202 -277 202h-30v238q239 9 239 170q0 160 -168 160 q-170 0 -170 -189l-2 -1036h-360z" />
<glyph unicode="&#xe0;" d="M59 297q0 -153 111 -238q101 -82 256 -82q160 0 274 105v-82h312v614q0 214 -121.5 326.5t-343.5 112.5q-242 0 -416 -101l59 -227q163 100 302 100q177 0 192 -145q-253 0 -408 -70q-217 -94 -217 -313zM225 1440h363l205 -316h-246zM375 326q0 154 295 151h20v-80 q0 -38 -6 -59q-17 -54 -71 -87.5t-117 -33.5q-121 0 -121 109z" />
<glyph unicode="&#xe1;" d="M59 297q0 -153 111 -238q101 -82 256 -82q160 0 274 105v-82h312v614q0 214 -121.5 326.5t-343.5 112.5q-242 0 -416 -101l59 -227q163 100 302 100q177 0 192 -145q-253 0 -408 -70q-217 -94 -217 -313zM299 1124l205 316h360l-319 -316h-246zM375 326q0 154 295 151h20 v-80q0 -38 -6 -59q-17 -54 -71 -87.5t-117 -33.5q-121 0 -121 109z" />
<glyph unicode="&#xe2;" d="M59 297q0 -153 111 -238q101 -82 256 -82q160 0 274 105v-82h312v614q0 214 -121.5 326.5t-343.5 112.5q-242 0 -416 -101l59 -227q163 100 302 100q177 0 192 -145q-253 0 -408 -70q-217 -94 -217 -313zM190 1124l230 316h282l218 -316h-234l-129 138l-133 -138h-234z M375 326q0 154 295 151h20v-80q0 -38 -6 -59q-17 -54 -71 -87.5t-117 -33.5q-121 0 -121 109z" />
<glyph unicode="&#xe3;" d="M59 297q0 -153 111 -238q101 -82 256 -82q160 0 274 105v-82h312v614q0 214 -121.5 326.5t-343.5 112.5q-242 0 -416 -101l59 -227q163 100 302 100q177 0 192 -145q-253 0 -408 -70q-217 -94 -217 -313zM162 1124q-3 135 71 209q65 68 168 68q82 0 170 -39 q90 -37 123 -37q58 0 58 84h174q6 -133 -58 -208t-172 -75q-85 0 -172 37t-123 37q-65 0 -65 -76h-174zM375 326q0 154 295 151h20v-80q0 -38 -6 -59q-17 -54 -71 -87.5t-117 -33.5q-121 0 -121 109z" />
<glyph unicode="&#xe4;" d="M59 297q0 -153 111 -238q101 -82 256 -82q160 0 274 105v-82h312v614q0 214 -121.5 326.5t-343.5 112.5q-242 0 -416 -101l59 -227q163 100 302 100q177 0 192 -145q-253 0 -408 -70q-217 -94 -217 -313zM199 1124v291h305v-291h-305zM375 326q0 154 295 151h20v-80 q0 -38 -6 -59q-17 -54 -71 -87.5t-117 -33.5q-121 0 -121 109zM610 1124v291h305v-291h-305z" />
<glyph unicode="&#xe5;" d="M59 297q0 -153 111 -238q101 -82 256 -82q160 0 274 105v-82h312v614q0 214 -121.5 326.5t-343.5 112.5q-242 0 -416 -101l59 -227q163 100 302 100q177 0 192 -145q-253 0 -408 -70q-217 -94 -217 -313zM266 1374q0 97 74 168q75 72 174 72q102 0 174 -72t72 -168 t-72 -168q-69 -69 -174 -69q-104 0 -176 69q-72 72 -72 168zM375 326q0 154 295 151h20v-80q0 -38 -6 -59q-17 -54 -71 -87.5t-117 -33.5q-121 0 -121 109zM408 1374q0 -43 31 -71.5t75 -28.5q43 0 72.5 28.5t29.5 71.5t-29.5 73t-72.5 30q-44 0 -75 -30t-31 -73z" />
<glyph unicode="&#xe6;" horiz-adv-x="1679" d="M41 297q0 217 215 319q167 78 412 78q-15 133 -193 133q-137 0 -303 -100l-59 225q180 103 417 103q211 0 330 -101q131 101 314 101q237 0 372 -144q129 -138 129 -364q0 -49 -10 -117h-664q35 -231 291 -231q150 0 316 114v-262q-165 -76 -375 -76q-262 0 -402 125 q-79 -73 -186 -100q-95 -26 -242 -23q-163 0 -262.5 89.5t-99.5 230.5zM358 330q0 -111 121 -111q118 0 174 86q23 38 23 90v90q-111 0 -197 -28q-121 -41 -121 -127zM1008 651h333q-18 178 -163 178q-133 0 -170 -178z" />
<glyph unicode="&#xe7;" horiz-adv-x="1011" d="M49 500q0 240 178 393q169 147 410 147q178 0 332 -65l22 -8l-57 -244l-33 20q-107 72 -213 72q-134 0 -214.5 -85.5t-80.5 -223.5q0 -151 84 -232q75 -72 211 -75q107 0 238 55l37 16v-243l-19 -7q-136 -43 -268 -43l-47 -47q14 2 28 2q117 9 179 -38q55 -46 55 -123 q0 -201 -277 -201q-146 0 -239 43v129q80 -51 184 -51q117 0 117 73q0 76 -96 76q-36 0 -86 -18l-43 67l79 93h-2q-220 30 -349.5 167t-129.5 351z" />
<glyph unicode="&#xe8;" horiz-adv-x="1097" d="M59 512q0 -254 162 -397q156 -138 412 -138q210 0 375 76v262q-161 -112 -314 -112q-257 0 -291 227h662q10 65 10 117q0 230 -135 368q-132 138 -365 138q-232 0 -374 -154q-142 -151 -142 -387zM307 1440h361l206 -316h-247zM410 643q37 184 168 184q145 0 163 -184 h-331z" />
<glyph unicode="&#xe9;" horiz-adv-x="1097" d="M59 512q0 -254 162 -397q156 -138 412 -138q210 0 375 76v262q-161 -112 -314 -112q-257 0 -291 227h662q10 65 10 117q0 230 -135 368q-132 138 -365 138q-232 0 -374 -154q-142 -151 -142 -387zM322 1124l206 316h361l-320 -316h-247zM410 643q37 184 168 184 q145 0 163 -184h-331z" />
<glyph unicode="&#xea;" horiz-adv-x="1099" d="M59 512q0 -254 162 -397q156 -138 412 -138q210 0 375 76v262q-161 -112 -314 -112q-257 0 -291 227h662q10 65 10 117q0 230 -135 368q-132 138 -365 138q-232 0 -374 -154q-142 -151 -142 -387zM207 1124l231 316h281l219 -316h-233l-130 138l-133 -138h-235zM410 643 q37 184 168 184q145 0 163 -184h-331z" />
<glyph unicode="&#xeb;" horiz-adv-x="1097" d="M59 512q0 -254 162 -397q156 -138 412 -138q210 0 375 76v262q-161 -112 -314 -112q-257 0 -291 227h662q10 65 10 117q0 230 -135 368q-132 138 -365 138q-232 0 -374 -154q-142 -151 -142 -387zM203 1124v291h303v-291h-303zM410 643q37 184 168 184q145 0 163 -184 h-331zM612 1124v291h306v-291h-306z" />
<glyph unicode="&#xec;" horiz-adv-x="561" d="M-88 1440h360l207 -316h-246zM53 1030h402v-1030h-332v827q0 78 -70 203z" />
<glyph unicode="&#xed;" horiz-adv-x="581" d="M59 1124l207 316h361l-320 -316h-248zM63 1030h402l-2 -1030h-330v827q0 78 -70 203z" />
<glyph unicode="&#xee;" horiz-adv-x="571" d="M-72 1124l232 316h280l219 -316h-233l-129 138l-133 -138h-236zM61 1030h402l-2 -1030h-330v827q0 78 -70 203z" />
<glyph unicode="&#xef;" horiz-adv-x="581" d="M-57 1124v291h305v-291h-305zM63 1030h402l-2 -1030h-330v827q0 78 -70 203zM354 1124v291h305v-291h-305z" />
<glyph unicode="&#xf0;" horiz-adv-x="1189" d="M51 537q0 207 133 352q131 143 342 143q129 0 232 -53q-50 130 -160 209q-8 -4 -188 -105l-80 131l90 52q-41 12 -107 12h-69l-49 231q23 2 67 2q259 0 451 -86l184 103l82 -131l-109 -62q143 -107 220 -317q65 -183 65 -385q0 -291 -133 -465q-150 -193 -436 -193 q-253 0 -398 160q-137 149 -137 402zM416 504q0 -110 35 -185q46 -98 145 -98t145 98q35 75 35 185q0 107 -35 182q-46 98 -145 98t-145 -98q-35 -75 -35 -182z" />
<glyph unicode="&#xf1;" horiz-adv-x="1204" d="M70 1030l22 -39q47 -86 47 -174v-817h332v606q0 87 55 149t138 62q69 0 107 -44.5t38 -129.5v-643h332v645q0 201 -103 304.5t-297 103.5h-2q-163 0 -278 -109v86h-391zM244 1124q0 134 71 211q66 66 168 66q80 0 170 -37q93 -37 123 -37q60 0 60 82h172 q6 -133 -57.5 -208t-170.5 -75q-83 0 -176 37q-84 37 -119 37q-67 0 -67 -76h-174z" />
<glyph unicode="&#xf2;" horiz-adv-x="1173" d="M47 514q0 237 156 387q158 152 399 152q244 0 402 -152q155 -149 155 -387t-155 -387q-156 -150 -402 -150q-243 0 -399 150t-156 387zM276 1440h363l205 -316h-246zM389 514q0 -139 60.5 -225t152.5 -86q93 0 154 86t61 225q0 141 -61 229q-61 82 -154 82 q-90 0 -151 -82q-62 -89 -62 -229z" />
<glyph unicode="&#xf3;" horiz-adv-x="1173" d="M47 514q0 237 156 387q158 152 401 152q242 0 400 -152q155 -149 155 -387t-155 -387q-156 -150 -400 -150q-245 0 -401 150t-156 387zM346 1124l207 316h360l-321 -316h-246zM389 514q0 -139 61 -225t154 -86q92 0 152.5 86t60.5 225q0 141 -61 229q-61 82 -152 82 q-92 0 -153 -82q-62 -89 -62 -229z" />
<glyph unicode="&#xf4;" horiz-adv-x="1173" d="M47 514q0 237 156 387q158 152 401 152q242 0 400 -152q155 -149 155 -387t-155 -387q-156 -150 -400 -150q-245 0 -401 150t-156 387zM238 1124l231 316h281l217 -316h-234l-129 138l-131 -138h-235zM389 514q0 -139 61 -225t154 -86q92 0 152.5 86t60.5 225 q0 141 -61 229q-61 82 -152 82q-92 0 -153 -82q-62 -89 -62 -229z" />
<glyph unicode="&#xf5;" horiz-adv-x="1173" d="M47 514q0 237 156 387t401 150q244 0 400 -150q155 -149 155 -387t-155 -387q-156 -150 -400 -150q-245 0 -401 150t-156 387zM221 1124q-3 133 72 211q66 66 168 66q80 0 170 -37t123 -37q57 0 57 82h174q6 -134 -57.5 -208.5t-171.5 -74.5q-85 0 -172 37t-121 37 q-68 0 -68 -76h-174zM389 514q0 -139 61 -225t154 -86q92 0 152.5 86t60.5 225t-60.5 225t-152.5 86q-93 0 -154 -86t-61 -225z" />
<glyph unicode="&#xf6;" horiz-adv-x="1173" d="M47 514q0 237 156 387q158 152 399 152q244 0 402 -152q155 -149 155 -387t-155 -387q-156 -150 -402 -150q-243 0 -399 150t-156 387zM248 1124v291h303v-291h-303zM389 514q0 -139 60.5 -225t152.5 -86q93 0 154 86t61 225t-61 225t-154 86q-92 0 -152.5 -86 t-60.5 -225zM657 1124v291h306v-291h-306z" />
<glyph unicode="&#xf7;" horiz-adv-x="1167" d="M55 399v258h1067v-258h-1067zM399 137q0 79 53.5 129.5t135.5 50.5q84 0 136 -50t52 -130q0 -79 -52 -128.5t-136 -49.5q-82 0 -135.5 50t-53.5 128zM399 920q0 78 53.5 128t135.5 50q84 0 136 -49.5t52 -128.5q0 -80 -52 -130.5t-136 -50.5q-82 0 -135.5 51t-53.5 130z " />
<glyph unicode="&#xf8;" horiz-adv-x="1173" d="M43 2l131 156q-127 145 -127 356q0 239 156 389q158 152 399 152q147 0 270 -60l138 164l149 -112l-137 -164q137 -146 137 -369q0 -240 -155 -389q-158 -152 -402 -152q-156 0 -283 68l-124 -152zM389 514q0 -49 8 -88l308 369q-43 32 -103 32q-92 0 -152.5 -86.5 t-60.5 -226.5zM489 244q52 -43 113 -43q94 0 154.5 86t60.5 227q0 56 -12 109z" />
<glyph unicode="&#xf9;" horiz-adv-x="1196" d="M51 1030q20 -33 39 -72q21 -44 27 -79q4 -36 4 -62v-414q0 -200 101.5 -313t293.5 -113q171 0 281 107v-84h321v1030h-330l-2 -602q0 -88 -56 -152.5t-140 -64.5q-139 0 -139 168v651h-400zM231 1440h363l205 -316h-246z" />
<glyph unicode="&#xfa;" horiz-adv-x="1196" d="M51 1030q20 -33 39 -72q21 -44 27 -79q4 -36 4 -62v-414q0 -200 101.5 -313t293.5 -113q171 0 281 107v-84h321v1030h-330l-2 -602q0 -88 -56 -152.5t-140 -64.5q-139 0 -139 168v651h-400zM416 1124l205 316h362l-321 -316h-246z" />
<glyph unicode="&#xfb;" horiz-adv-x="1196" d="M51 1030q20 -33 39 -72q21 -44 27 -79q4 -36 4 -62v-414q0 -200 101.5 -313t293.5 -113q171 0 281 107v-84h321v1030h-330l-2 -602q0 -88 -56 -152.5t-140 -64.5q-139 0 -139 168v651h-400zM250 1124l229 316h281l219 -316h-234l-129 138l-133 -138h-233z" />
<glyph unicode="&#xfc;" horiz-adv-x="1196" d="M51 1030q20 -33 39 -72q21 -44 27 -79q4 -36 4 -62v-414q0 -200 101.5 -313t293.5 -113q171 0 281 107v-84h321v1030h-330l-2 -602q0 -88 -56 -152.5t-140 -64.5q-139 0 -139 168v651h-400zM260 1124v291h305v-291h-305zM672 1124v291h305v-291h-305z" />
<glyph unicode="&#xfd;" horiz-adv-x="1114" d="M-18 1030l434 -1024q-27 -94 -51 -129q-40 -55 -123 -55q-81 0 -179 67v-251q92 -50 224 -50q186 0 288 105q79 79 154 274l418 1063h-344l-203 -629l-229 629h-389zM336 1122l205 318h362l-321 -318h-246z" />
<glyph unicode="&#xfe;" horiz-adv-x="1222" d="M49 1440h391v-477q109 86 281 86q210 0 346 -148q135 -147 135 -377q0 -239 -137 -391q-142 -160 -367 -160q-137 0 -247 72v-459h-332v1639q0 87 -70 215zM446 512q0 -119 43 -201q55 -108 162 -108q109 0 164 108q43 82 43 201q0 121 -45 201q-54 106 -162 106 q-82 0 -139 -69q-66 -84 -66 -238z" />
<glyph unicode="&#xff;" horiz-adv-x="1114" d="M-18 1030l434 -1024q-27 -94 -51 -129q-40 -55 -123 -55q-81 0 -179 67v-251q92 -50 224 -50q186 0 288 105q79 79 154 274l418 1063h-344l-203 -629l-229 629h-389zM207 1122v293h305v-293h-305zM616 1122v293h306v-293h-306z" />
<glyph unicode="&#x152;" horiz-adv-x="2242" d="M66 721q0 317 194 526q206 221 539 221q222 0 391 -88v60h944v-248h-604v-322h573v-247h-573v-371h633v-252h-973v63q-169 -88 -391 -88q-331 0 -539 220q-194 212 -194 526zM438 723q0 -216 101 -356q103 -142 260 -142q159 0 262 142q100 138 100 356q0 216 -100 354 q-103 142 -262 142q-157 0 -260 -142q-101 -140 -101 -354z" />
<glyph unicode="&#x153;" horiz-adv-x="1830" d="M47 516q0 237 156 387q158 152 401 152q228 0 377 -131q137 131 352 131q238 0 373 -144q129 -138 129 -364q0 -49 -10 -117h-666q35 -231 293 -231q149 0 313 114v-262q-162 -76 -372 -76q-256 0 -410 136q-152 -134 -379 -134q-245 0 -401 150t-156 389zM389 516 q0 -141 60.5 -227t154.5 -86q91 0 150 84t63 223v8q3 139 -61 227q-58 82 -152 82q-93 0 -154 -86t-61 -225zM1165 641h334q-24 188 -162 188q-61 0 -108 -47q-52 -52 -64 -141z" />
<glyph unicode="&#x178;" horiz-adv-x="1257" d="M-55 1440h426l264 -541l264 541h373l-481 -881v-559h-365v565zM281 1542v293h305v-293h-305zM692 1542v293h303v-293h-303z" />
<glyph unicode="&#x2c6;" horiz-adv-x="593" d="M-68 1124l230 316h282l218 -316h-234l-129 138l-131 -138h-236z" />
<glyph unicode="&#x2dc;" horiz-adv-x="602" d="M-86 1124q0 134 72 209q65 68 168 68q82 0 170 -39q93 -37 122 -37q60 0 60 84h172q6 -133 -57 -208t-170 -75q-84 0 -177 37q-84 37 -118 37q-68 0 -68 -76h-174z" />
<glyph unicode="&#x2000;" horiz-adv-x="995" />
<glyph unicode="&#x2001;" horiz-adv-x="1991" />
<glyph unicode="&#x2002;" horiz-adv-x="995" />
<glyph unicode="&#x2003;" horiz-adv-x="1991" />
<glyph unicode="&#x2004;" horiz-adv-x="663" />
<glyph unicode="&#x2005;" horiz-adv-x="497" />
<glyph unicode="&#x2006;" horiz-adv-x="331" />
<glyph unicode="&#x2007;" horiz-adv-x="331" />
<glyph unicode="&#x2008;" horiz-adv-x="248" />
<glyph unicode="&#x2009;" horiz-adv-x="398" />
<glyph unicode="&#x200a;" horiz-adv-x="110" />
<glyph unicode="&#x2010;" horiz-adv-x="724" d="M39 434v242h661v-242h-661z" />
<glyph unicode="&#x2011;" horiz-adv-x="724" d="M39 434v242h661v-242h-661z" />
<glyph unicode="&#x2012;" horiz-adv-x="724" d="M39 434v242h661v-242h-661z" />
<glyph unicode="&#x2013;" horiz-adv-x="1026" d="M-27 453v204h1092v-204h-1092z" />
<glyph unicode="&#x2014;" horiz-adv-x="2043" d="M-27 453v204h2124v-204h-2124z" />
<glyph unicode="&#x2018;" horiz-adv-x="565" d="M33 915l205 525h274l-113 -525h-366z" />
<glyph unicode="&#x2019;" horiz-adv-x="495" d="M-23 918l113 522h367l-205 -522h-275z" />
<glyph unicode="&#x201a;" horiz-adv-x="514" d="M2 -176l113 522h364l-203 -522h-274z" />
<glyph unicode="&#x201c;" horiz-adv-x="966" d="M23 915l204 525h275l-115 -525h-364zM432 915l205 525h274l-112 -525h-367z" />
<glyph unicode="&#x201d;" horiz-adv-x="927" d="M29 918l112 522h367l-205 -522h-274zM438 918l113 522h367l-205 -522h-275z" />
<glyph unicode="&#x201e;" horiz-adv-x="927" d="M29 -176l112 522h367l-205 -522h-274zM438 -176l115 522h365l-205 -522h-275z" />
<glyph unicode="&#x2022;" horiz-adv-x="1040" d="M125 721q0 158 117 272q116 113 282 113q167 0 283 -113q119 -113 119 -272q0 -162 -119 -275q-117 -114 -283 -114q-167 0 -282 112q-117 114 -117 277z" />
<glyph unicode="&#x2026;" horiz-adv-x="2025" d="M166 0v350h366v-350h-366zM844 0v350h366v-350h-366zM1524 0v350h364v-350h-364z" />
<glyph unicode="&#x202f;" horiz-adv-x="398" />
<glyph unicode="&#x2039;" horiz-adv-x="684" d="M49 555l268 414h357l-250 -414l250 -414h-357z" />
<glyph unicode="&#x203a;" horiz-adv-x="684" d="M20 141l250 414l-250 414h357l268 -414l-268 -414h-357z" />
<glyph unicode="&#x205f;" horiz-adv-x="497" />
<glyph unicode="&#x20ac;" horiz-adv-x="1351" d="M-4 485v205h135q0 27 4 101h-139v202h186q82 229 293 357q195 116 451 116q227 0 395 -73l-64 -281q-141 105 -299 105q-270 0 -389 -224h662l-47 -202h-676q-4 -54 -4 -82v-19h657l-47 -205h-567q108 -260 416 -260q168 0 331 82v-282q-161 -50 -379 -50 q-277 0 -471 123q-213 131 -284 387h-164z" />
<glyph unicode="&#x2122;" horiz-adv-x="1943" d="M43 1440h729l-29 -158h-221v-711h-231v711h-219zM831 1440h367l178 -588l176 588h326v-869h-223v557l-170 -557h-217l-170 557v-557h-219v732q0 52 -48 137z" />
<glyph unicode="&#xe000;" horiz-adv-x="1034" d="M0 0v1034h1034v-1034h-1034z" />
</font>
</defs>
</svg>
