<?xml version="1.0" standalone="no"?>
<!DOCTYPE svg PUBLIC "-//W3C//DTD SVG 1.1//EN" "http://www.w3.org/Graphics/SVG/1.1/DTD/svg11.dtd" >
<svg xmlns="http://www.w3.org/2000/svg">
<metadata></metadata>
<defs>
<font id="arthurregular" horiz-adv-x="1044" >
<font-face units-per-em="2048" ascent="1638" descent="-410" />
<missing-glyph horiz-adv-x="544" />
<glyph unicode="&#xfb01;" horiz-adv-x="1304" d="M14 1014h193v59q0 174 95.5 281.5t260.5 107.5q133 0 232 -57l-45 -199q-66 66 -136 66q-129 -3 -129 -156v-102h240l-29 -176h-211v-838h-278v838h-164zM868 1014h330v-1014h-278v831q0 89 -52 183zM920 1182v258h278v-258h-278z" />
<glyph unicode="&#xfb02;" horiz-adv-x="1304" d="M14 1014h193v59q0 174 95.5 281.5t260.5 107.5q120 0 219 -57l-45 -199q-66 66 -123 66q-129 -3 -129 -156v-102h240l-29 -176h-211v-838h-278v838h-164zM868 1440h330v-1440h-278v1245q0 101 -52 195z" />
<glyph horiz-adv-x="2048" />
<glyph horiz-adv-x="2048" />
<glyph unicode="&#xd;" horiz-adv-x="2048" />
<glyph unicode=" "  horiz-adv-x="544" />
<glyph unicode="&#x09;" horiz-adv-x="544" />
<glyph unicode="&#xa0;" horiz-adv-x="544" />
<glyph unicode="!" horiz-adv-x="731" d="M174 1442h371l-33 -1022h-258q-7 199 -15 419.5t-11 306t-3 101.5q-3 104 -51 195zM229 0v309h312v-309h-312z" />
<glyph unicode="&#x22;" horiz-adv-x="856" d="M147 891v549h240v-549h-240zM512 891v549h240v-549h-240z" />
<glyph unicode="#" horiz-adv-x="1163" d="M57 416v164h219l46 278h-189v166h217l66 416h192l-65 -416h223l65 416h191l-66 -416h189v-166h-217l-45 -278h188v-164h-215l-70 -416h-190l70 416h-224l-69 -416h-191l68 416h-193zM469 580h223l45 278h-223z" />
<glyph unicode="$" horiz-adv-x="1202" d="M102 1030q0 190 129 307q122 110 318 125v152h147v-150q216 -6 371 -94l2 -2l-49 -229l-4 2q-136 98 -320 110v-354l74 -23q160 -46 242 -112q151 -127 151 -320q0 -186 -114 -309q-123 -132 -353 -153v-164h-147v159q-200 -9 -426 95v247l4 -4q54 -41 154 -80 q97 -34 178 -40q66 -3 90 0v419q-84 27 -98 31q-157 52 -236 125q-113 104 -113 262zM391 1081q0 -109 158 -159v323q-158 -35 -158 -164zM696 205q160 35 160 180q0 105 -94 166q-36 22 -66 31v-377z" />
<glyph unicode="%" horiz-adv-x="1982" d="M201 1085q0 160 102 271q103 112 262 112q158 0 262 -110q105 -111 105 -273q0 -170 -113 -280q-103 -100 -254 -100q-168 0 -270 120q-94 107 -94 260zM416 1085q0 -93 37 -163q41 -78 112 -78q68 0 110 68.5t42 172.5q0 106 -42.5 174t-109.5 68q-70 0 -110 -76 q-39 -65 -39 -166zM444 -25l965 1493h219l-966 -1493h-218zM1130 356q0 159 103 271t264 112q158 0 262 -110q105 -111 105 -273q0 -168 -111 -276q-108 -105 -256 -105q-166 0 -272 121q-95 109 -95 260zM1346 356q0 -95 36 -163q44 -78 115 -78q67 0 108.5 68.5 t41.5 172.5q0 106 -42 174t-108 68q-70 0 -113 -76q-38 -63 -38 -166z" />
<glyph unicode="&#x26;" horiz-adv-x="1495" d="M119 387q0 243 258 387q-138 156 -141 299q-6 179 122 289q121 106 320 106q180 0 293 -79q133 -89 133 -261q0 -232 -295 -370l274 -279q74 116 91 230v2h243q-35 -198 -176 -392l311 -319h-407l-117 115q-205 -140 -426 -140q-220 0 -352 111q-131 110 -131 301z M401 397q-1 -93 64.5 -150t169.5 -57h2q118 0 237 78l-350 355q-123 -91 -123 -226zM522 1116q3 -79 103 -174l39 -39q173 95 170 211q0 72 -44 112t-112 38q-73 0 -115.5 -40.5t-40.5 -107.5z" />
<glyph unicode="'" horiz-adv-x="514" d="M147 891v549h240v-549h-240z" />
<glyph unicode="(" horiz-adv-x="624" d="M84 643q0 488 295 918h262q-235 -402 -235 -918q0 -514 237 -922h-262q-297 428 -297 922z" />
<glyph unicode=")" horiz-adv-x="626" d="M10 -279q238 410 238 922q0 515 -236 918h262q295 -430 295 -918q0 -494 -297 -922h-262z" />
<glyph unicode="*" horiz-adv-x="966" d="M100 901l228 131l-224 129l89 152l227 -131v258h176v-262l223 129l86 -152l-225 -131l221 -129l-86 -152l-227 131v-258h-176v263l-224 -129z" />
<glyph unicode="+" horiz-adv-x="1140" d="M88 397v226h393v399h228v-399h393v-226h-393v-397h-228v397h-393z" />
<glyph unicode="," horiz-adv-x="499" d="M35 -176l100 459h305l-182 -459h-223z" />
<glyph unicode="-" horiz-adv-x="704" d="M66 434v242h608v-242h-608z" />
<glyph unicode="." horiz-adv-x="577" d="M150 0v309h311v-309h-311z" />
<glyph unicode="/" horiz-adv-x="843" d="M33 -25l563 1493h252l-563 -1493h-252z" />
<glyph unicode="0" horiz-adv-x="1361" d="M66 721q0 320 163 528q171 219 453 219q279 0 453 -219q163 -208 163 -528q0 -318 -163 -526q-174 -220 -453 -220q-282 0 -453 220q-163 208 -163 526zM385 721q0 -228 78 -381q83 -160 219 -160q134 0 217 160q80 151 80 381q0 232 -80 383q-83 160 -217 160 q-136 0 -219 -160q-78 -153 -78 -383z" />
<glyph unicode="1" horiz-adv-x="737" d="M29 1239l280 201h273v-1440h-312v1163l-194 -139z" />
<glyph unicode="2" horiz-adv-x="1107" d="M27 0q12 249 252 516q58 64 208 199q146 134 189 184q65 80 65 164q0 88 -66 140t-163 52q-198 0 -371 -161l-51 237q201 137 461 137q236 0 367 -109.5t131 -297.5q0 -202 -189 -385q-172 -148 -248 -211q-199 -169 -211 -258h641v-207h-1015z" />
<glyph unicode="3" horiz-adv-x="1093" d="M23 41v240q156 -93 364 -93q142 15 211 56q98 58 98 182q0 229 -352 229q-51 0 -84 -2v203h2h43q18 -2 39 -2q312 -3 315 219q0 80 -61 130t-168 50q-184 0 -350 -114l-51 231q178 96 438 96q201 0 338 -88q162 -101 162 -293q0 -233 -215 -319q264 -83 258 -369 q-3 -184 -164 -303q-155 -116 -391 -119q-285 -3 -432 66z" />
<glyph unicode="4" horiz-adv-x="1097" d="M29 297v256q377 590 424 664q69 106 69 169q0 30 -8 54h424v-936h174v-207h-174v-297h-309v297h-600zM276 504h353v569z" />
<glyph unicode="5" horiz-adv-x="1161" d="M123 43v238q149 -93 344 -93q154 21 223 68q90 66 90 209q0 128 -84 197q-100 81 -278 81q-149 0 -277 -45l-4 -2l58 744h843l-34 -205h-525l-20 -301q70 4 108 4q146 0 250 -39q136 -51 209.5 -163t73.5 -265q0 -211 -156 -352t-407 -144h-19q-201 0 -393 66z" />
<glyph unicode="6" horiz-adv-x="1169" d="M68 637q0 320 139 553q168 275 467 278q188 3 356 -98l-51 -231q-114 120 -285 114q-122 -3 -213 -120q-91 -113 -106 -289q114 102 295 102q199 0 323 -127q125 -125 125 -323q0 -220 -127 -365q-138 -156 -379 -156q-248 0 -391 158q-153 169 -153 504zM393 459 q0 -107 47 -187q58 -94 160 -94q100 0 158 94q49 79 49 187q0 109 -49 188q-58 94 -158 94q-102 0 -160 -94q-47 -80 -47 -188z" />
<glyph unicode="7" horiz-adv-x="1099" d="M80 1235v205h969v-193l-572 -1247h-342l563 1235h-618z" />
<glyph unicode="8" horiz-adv-x="1185" d="M74 377q0 236 207 387q-144 126 -144 299q0 194 146 307q133 103 333 103q187 0 320 -91q145 -103 145 -284q0 -202 -184 -328q25 -13 74 -47q178 -129 178 -309q0 -29 -2 -43q-21 -188 -180 -301q-146 -101 -363 -101t-362 92q-168 107 -168 316zM350 395 q2 -94 74.5 -156.5t181.5 -62.5q182 0 209 156q2 10 2 28q0 94 -100 160q-126 64 -221 111l-37 18q-112 -100 -109 -254zM428 1120q0 -93 96 -159q62 -43 170 -91q115 89 109 222q-5 80 -59 127t-142 47q-73 0 -123.5 -42t-50.5 -104z" />
<glyph unicode="9" horiz-adv-x="1171" d="M63 948q0 228 142 373q141 147 377 147q250 0 387 -155q145 -171 145 -508q0 -372 -145 -588q-163 -242 -490 -242q-187 0 -362 99l53 229q116 -113 295 -113q147 0 232.5 107.5t86.5 298.5q-106 -100 -278 -100q-193 0 -313 120q-130 124 -130 332zM369 983 q0 -122 58 -201.5t148 -79.5q92 0 152 84q55 76 55 197q0 128 -59.5 205.5t-147.5 77.5q-92 0 -149 -81.5t-57 -201.5z" />
<glyph unicode=":" horiz-adv-x="577" d="M150 0v309h313v-309h-313zM150 707v307h313v-307h-313z" />
<glyph unicode=";" horiz-adv-x="577" d="M117 -176l100 459h305l-184 -459h-221zM150 707v307h313v-307h-313z" />
<glyph unicode="&#x3c;" horiz-adv-x="1095" d="M76 420v205l983 436v-250l-705 -289l705 -289v-249z" />
<glyph unicode="=" horiz-adv-x="1107" d="M92 162v221h965v-221h-965zM92 618v222h965v-222h-965z" />
<glyph unicode="&#x3e;" horiz-adv-x="1095" d="M86 -16v249l705 289l-705 289v250l983 -436v-205z" />
<glyph unicode="?" horiz-adv-x="1054" d="M82 1331q204 137 473 137q494 0 494 -387q0 -198 -226 -383q-173 -141 -176 -280h-268v2q0 172 53 272q33 62 86 115q26 29 131 121q82 70 82 155q0 87 -65 134q-58 40 -150 40q-209 0 -379 -161l-4 -2zM358 0v307h314v-307h-314z" />
<glyph unicode="@" horiz-adv-x="1673" d="M115 702q3 329 229 545q229 221 574 221q341 0 544 -194q187 -175 187 -436q0 -251 -197 -410q-141 -117 -295 -117q-141 0 -168 113q-118 -115 -252 -115q-124 -1 -201 91.5t-77 240.5q0 52 8 96q27 170 149 283q114 102 248 102q154 0 230 -116l24 90h195 q-94 -406 -119 -531q-2 -10 -2 -26q0 -47 37 -47q27 0 74 30q67 47 108 148q31 85 31 168q-3 186 -129 315q-144 147 -393 147q-274 0 -437 -172q-155 -162 -161 -423q-3 -267 159 -416q151 -142 424 -142q180 0 301 39q121 37 248 113v-203q-239 -121 -563 -121 q-345 0 -547 181q-232 206 -229 546zM680 664q0 -179 127 -179q73 0 128.5 65t74.5 171q4 46 4 65q0 170 -127 170q-95 0 -154 -102q-53 -89 -53 -190z" />
<glyph unicode="A" horiz-adv-x="1363" d="M-14 0q434 1187 436 1192q31 91 31 145q0 48 -19 103h422l528 -1440h-348l-114 344h-529l-112 -344h-295zM461 547h393l-197 594z" />
<glyph unicode="B" horiz-adv-x="1318" d="M119 1440h561q500 0 500 -363q0 -111 -63 -194t-167 -113v-2q143 -29 223 -129t80 -240q0 -187 -141 -295q-137 -104 -371 -104h-569v1237q0 103 -53 203zM483 203h158q299 0 299 225t-303 225h-84h-70v-450zM483 846l129 2q262 0 262 201q0 192 -260 192h-131v-395z" />
<glyph unicode="C" horiz-adv-x="1275" d="M100 707q0 340 213 550q212 209 555 209q228 0 363 -63h2l-49 -227q-113 90 -285 90q-216 0 -348 -156q-131 -152 -131 -389q0 -252 133 -397q134 -146 352 -146q174 0 305 70v-228q-131 -45 -354 -45q-342 0 -549 195q-207 198 -207 537z" />
<glyph unicode="D" horiz-adv-x="1449" d="M111 1440h424q234 0 405 -54q473 -150 473 -647q0 -262 -135 -443t-383 -253q-145 -43 -375 -43h-356v1237q0 103 -53 203zM477 203h107q242 0 376 140t134 392q0 237 -136 371.5t-372 134.5h-109v-1038z" />
<glyph unicode="E" horiz-adv-x="1173" d="M109 1440h970v-203h-604v-387h572v-205h-572v-436h631v-209h-944v1237q0 100 -53 203z" />
<glyph unicode="F" horiz-adv-x="1107" d="M123 1440h944v-203h-578v-387h545v-205h-545v-645h-313v1237q0 103 -53 203z" />
<glyph unicode="G" horiz-adv-x="1417" d="M100 707q0 340 213 550q212 209 555 209q266 0 443 -80h2l-49 -225l-4 2q-136 103 -359 103q-218 0 -350 -156q-131 -155 -131 -389q0 -249 133 -397q134 -146 352 -146q73 0 125 15v409h-246l-34 205h583v-762l-2 -2q-232 -68 -451 -68h-18q-358 6 -565 207 q-197 197 -197 525z" />
<glyph unicode="H" horiz-adv-x="1478" d="M123 1440h366v-590h574v590h311v-1440h-311v645h-574v-645h-313v1237q0 100 -53 203z" />
<glyph unicode="I" horiz-adv-x="608" d="M127 1440h367v-1440h-314v1237q0 100 -53 203z" />
<glyph unicode="J" horiz-adv-x="847" d="M76 16v207q68 -37 158 -37h14q192 6 192 236v815q0 100 -53 203h365v-1059q0 -404 -422 -404q-148 0 -252 39h-2z" />
<glyph unicode="K" horiz-adv-x="1323" d="M117 1440h366v-631l480 631h340l-535 -652l596 -788h-387l-494 690v-690h-313v1237q0 97 -53 203z" />
<glyph unicode="L" horiz-adv-x="1062" d="M113 1440h366v-1231h594v-209h-907v1237q0 97 -53 203z" />
<glyph unicode="M" horiz-adv-x="1857" d="M117 1440h522l319 -1116l322 1116h477v-1440h-301v1186l-344 -1186h-307l-344 1184v-1184h-291v1237q0 100 -53 203z" />
<glyph unicode="N" horiz-adv-x="1492" d="M125 1440h477l477 -1084v1084h301v-1440h-409l-502 1133v-1133h-291v1237q0 100 -53 203z" />
<glyph unicode="O" horiz-adv-x="1548" d="M94 721q0 318 189 528q201 219 520 219q320 0 518 -219q190 -208 190 -528q0 -318 -190 -526q-199 -220 -518 -220q-318 0 -520 220q-189 210 -189 526zM414 723q0 -231 104 -383q109 -160 285 -160q175 0 284 160q103 154 103 383q0 227 -103 381q-109 160 -284 160 q-174 0 -283 -158q-106 -153 -106 -383z" />
<glyph unicode="P" horiz-adv-x="1206" d="M127 1440h555q218 0 362 -99q162 -110 162 -321q0 -239 -164 -356q-145 -103 -393 -103h-88h-69v-561h-312v1237q0 100 -53 203zM492 760h131q154 0 225 86q47 62 47 160q0 232 -268 235q-23 2 -66 2q-57 0 -69 -2v-481z" />
<glyph unicode="Q" horiz-adv-x="1546" d="M106 723q0 320 193 528q199 217 518 217q318 0 514 -211q197 -212 197 -534q0 -237 -109 -420q-115 -189 -311 -270l283 -266h-383l-195 208q-320 3 -518 222q-189 210 -189 526zM424 723q0 -238 111 -391q112 -152 282 -152q175 0 287 158q106 147 106 385 q0 233 -110 385q-108 156 -283 156q-179 0 -289 -162q-104 -149 -104 -379z" />
<glyph unicode="R" horiz-adv-x="1302" d="M123 1440h579q220 0 345 -76q159 -94 159 -297q0 -134 -77 -229.5t-211 -130.5v-2q62 -21 104 -78q14 -18 65 -115l263 -512h-357q-60 129 -115.5 248t-83 176.5t-32.5 69.5q-68 133 -199 133h-76v-627h-311v1237q0 103 -53 203zM487 819h146q262 0 262 215 q0 207 -297 207h-111v-422z" />
<glyph unicode="S" horiz-adv-x="1167" d="M100 1030q0 19 4 55q21 177 166 283q140 98 359 98q262 0 424 -96l-49 -231q-156 111 -355 114h-10q-95 -1 -161 -37q-68 -38 -81 -110q-2 -13 -2 -25q0 -77 82 -120q153 -58 221 -78q184 -59 258 -119q156 -126 156 -318q0 -208 -135 -331q-152 -140 -438 -140 q-219 0 -422 84v2v246q169 -114 383 -114q120 0 196 40q103 53 103 162q0 93 -92 152q-40 25 -109 47q-102 35 -141 47q-163 48 -238 117q-119 101 -119 272z" />
<glyph unicode="T" horiz-adv-x="1107" d="M8 1440h1125l-37 -205h-369v-1235h-313v1235h-371z" />
<glyph unicode="U" horiz-adv-x="1431" d="M92 1440h367v-924q0 -168 92 -254q77 -74 192 -74q118 0 195 74q92 86 92 254l-2 924h313v-828q0 -194 -47 -309q-62 -154 -207.5 -241t-343.5 -87t-343 87t-207 241q-48 118 -48 309v625q0 100 -53 203z" />
<glyph unicode="V" horiz-adv-x="1302" d="M-18 1440h348l354 -1114l356 1114h293l-495 -1440h-357z" />
<glyph unicode="W" horiz-adv-x="1914" d="M25 1440h331l244 -1114l231 1114h332l230 -1114l243 1114h332l-369 -1440h-368l-234 1096l-235 -1096h-367z" />
<glyph unicode="X" horiz-adv-x="1298" d="M-18 0l454 748l-405 692h381l274 -514l262 514h324l-402 -692l461 -748h-391l-313 557l-308 -557h-337z" />
<glyph unicode="Y" horiz-adv-x="1232" d="M-10 1440h364l281 -584l280 584h312l-463 -879v-561h-311v567z" />
<glyph unicode="Z" horiz-adv-x="1146" d="M88 0v195l643 1042h-600v203h971v-193l-643 -1038h696l-37 -209h-1030z" />
<glyph unicode="[" horiz-adv-x="616" d="M131 -289v1850h440v-218h-159v-1415h159v-217h-440z" />
<glyph unicode="\" horiz-adv-x="802" d="M41 1468h215l543 -1493h-215z" />
<glyph unicode="]" horiz-adv-x="616" d="M72 -72h159v1415h-159v218h442v-1850h-442v217z" />
<glyph unicode="^" horiz-adv-x="1193" d="M125 692l389 746h205l389 -746h-256l-236 475l-233 -475h-258z" />
<glyph unicode="_" horiz-adv-x="1038" d="M0 -156h1083v-116h-1083v116z" />
<glyph unicode="`" horiz-adv-x="524" d="M47 1440h283l174 -273h-189z" />
<glyph unicode="a" horiz-adv-x="1060" d="M84 281q0 187 163 288q157 97 441 97h23q0 192 -219 192q-141 0 -287 -90l-45 180q156 90 385 90q440 0 440 -428v-610h-258v111q-108 -134 -299 -134h-8q-156 0 -248 89q-88 82 -88 215zM348 315q0 -141 146 -141q118 0 186 86q37 46 37 123v119q-19 1 -37 1 q-119 0 -205 -34q-127 -47 -127 -154z" />
<glyph unicode="b" horiz-adv-x="1218" d="M111 1440h329v-512q119 110 293 110q217 0 344 -157q115 -145 115 -371q0 -218 -115 -369q-126 -166 -340 -166q-196 0 -305 136v-111h-270v1245q0 106 -51 195zM436 508q0 -167 72 -264q64 -82 162 -82q103 0 167 94.5t64 251.5q0 169 -74 264q-66 84 -157 84 q-100 0 -164 -88q-70 -94 -70 -260z" />
<glyph unicode="c" horiz-adv-x="966" d="M78 500q0 238 162 387q165 151 399 151q168 0 319 -65l3 -2l-43 -195q-114 78 -226 78h-16q-138 -6 -223.5 -101t-85.5 -247q0 -168 94 -262q86 -86 227 -86q112 0 248 59v-194q-142 -48 -303 -48q-247 0 -397 138q-158 146 -158 387z" />
<glyph unicode="d" horiz-adv-x="1183" d="M76 496q0 238 133 389q132 153 344 153q163 0 274 -102v311q0 94 -51 193h330v-1442h-270v106q-105 -129 -306 -129q-190 0 -317 136q-137 143 -137 385zM367 508q0 -158 64.5 -252t166.5 -94q98 0 162 82q71 95 71 264q0 158 -64 253t-169 95q-108 0 -172 -102 q-59 -95 -59 -246z" />
<glyph unicode="e" horiz-adv-x="1067" d="M86 504q0 232 133 383t356 151q226 0 351 -137t125 -360q0 -48 -7 -95h-671q27 -292 321 -292q156 0 289 92v-201q-143 -70 -348 -70q-254 0 -402 142q-147 141 -147 387zM377 623h393q-9 237 -190 237q-168 0 -203 -237z" />
<glyph unicode="f" horiz-adv-x="774" d="M14 1014h193v59q0 174 95.5 281.5t260.5 107.5q149 0 248 -57l-45 -199q-66 66 -152 66q-129 -3 -129 -156v-102h240l-29 -176h-211v-838h-278v838h-162z" />
<glyph unicode="g" horiz-adv-x="1159" d="M72 498q0 228 131 383q133 157 338 157q188 0 290 -123v99h271v-821q0 -165 -27 -267q-30 -106 -104 -190q-144 -164 -439 -164q-197 0 -337 61v211q134 -90 313 -90q312 0 315 350q-120 -108 -291 -108q-214 0 -337 136t-123 366zM362 516q0 -153 64.5 -246.5 t169.5 -93.5t168 94.5t63 245.5q0 166 -71 258q-64 82 -160 82q-107 0 -170.5 -95t-63.5 -245z" />
<glyph unicode="h" horiz-adv-x="1181" d="M100 1440h330v-506q128 104 311 104q363 0 363 -413v-625h-279v608q0 242 -174 242q-89 0 -155 -72q-64 -70 -64 -172l-2 -606h-278v1245q0 94 -52 195z" />
<glyph unicode="i" horiz-adv-x="550" d="M106 1014h330v-1014h-278v831q0 89 -52 183zM158 1182v258h278v-258h-278z" />
<glyph unicode="j" horiz-adv-x="679" d="M-27 -190q71 -41 152 -41h2q162 0 162 190v420v452q0 94 -51 183h329v-1063q0 -184 -108 -283q-104 -90 -275 -90q-129 0 -211 39v193zM289 1182v258h278v-258h-278z" />
<glyph unicode="k" d="M100 1440h330v-826l311 400h299l-354 -410l410 -604h-336l-330 541v-541h-278v1245q0 94 -52 195z" />
<glyph unicode="l" horiz-adv-x="561" d="M104 1440h330v-1440h-278v1245q0 101 -52 195z" />
<glyph unicode="m" horiz-adv-x="1734" d="M100 1014h322v-103q115 127 278 127q224 0 304 -164q126 164 317 164q348 0 348 -413v-625h-278v645q0 205 -142 205q-87 0 -142.5 -68.5t-55.5 -169.5v-612h-279v645q0 205 -141 205q-88 0 -144.5 -72t-56.5 -184v-594h-278v821q0 95 -52 193z" />
<glyph unicode="n" horiz-adv-x="1183" d="M111 1014h321v-103q121 127 305 127q375 0 375 -397v-641h-278v641q0 209 -172 209q-96 0 -160 -76q-62 -74 -62 -174v-600h-278v821q0 101 -51 193z" />
<glyph unicode="o" horiz-adv-x="1150" d="M74 508q0 234 147 381q146 149 381 149t381 -149q147 -147 147 -381q0 -236 -147 -383q-148 -148 -381 -148t-381 148q-147 147 -147 383zM360 508q0 -155 68 -252.5t174 -97.5t174 97.5t68 252.5q0 153 -68 250.5t-174 97.5t-174 -97.5t-68 -250.5z" />
<glyph unicode="p" horiz-adv-x="1189" d="M109 1016h321v-107q105 129 307 129q197 0 324 -145q129 -144 129 -373q0 -237 -133 -391q-134 -152 -344 -152q-160 0 -275 103v-494h-278v1235q0 99 -51 195zM434 506q0 -133 49 -227q64 -119 185 -119q118 0 182 119q49 94 49 227t-49 227q-65 121 -182 121 q-96 0 -162 -84q-72 -97 -72 -264z" />
<glyph unicode="q" horiz-adv-x="1161" d="M66 518q0 215 131 367q132 153 323 153q200 0 305 -129v107h271v-1430h-279v494q-112 -103 -274 -103q-227 0 -352 142t-125 399zM356 506q0 -132 50 -227q64 -119 184 -119q118 0 182 119q49 94 49 227q0 169 -71 264q-64 82 -160 82q-120 0 -184 -119q-50 -95 -50 -227 z" />
<glyph unicode="r" horiz-adv-x="880" d="M109 1016h321v-121q110 143 272 143q108 0 203 -59l-53 -227q-63 75 -180 75q-107 0 -164 -69q-70 -82 -70 -252v-506h-278v821q0 96 -51 195z" />
<glyph unicode="s" horiz-adv-x="876" d="M100 717q0 155 121 244q109 77 273 77q193 0 337 -75l-45 -183q-122 82 -266 82q-146 0 -155 -88q-1 -5 -1 -9q0 -43 52 -69q44 -23 143 -51q129 -38 186 -78q119 -82 119 -248q0 -131 -84 -221q-115 -121 -350 -121q-172 0 -317 60v205l4 -2q123 -78 260 -84h18 q189 0 189 125q0 48 -49 79q-50 32 -170 66q-106 27 -172 80q-93 72 -93 211z" />
<glyph unicode="t" horiz-adv-x="743" d="M20 1016h193v235l279 105v-340h272l-29 -178h-243v-516q0 -158 139 -158q72 0 137 41v-193q-78 -35 -190 -35q-190 0 -277.5 91t-87.5 282v488h-162z" />
<glyph unicode="u" horiz-adv-x="1159" d="M94 1014h328v-647q0 -205 166 -205q96 0 160 76q65 77 65 180v596h279v-1014h-269v102q-113 -125 -309 -125q-178 0 -273.5 106t-95.5 308v430q0 101 -51 193z" />
<glyph unicode="v" horiz-adv-x="1021" d="M10 1016h305l246 -723l227 723h275l-383 -1016h-287z" />
<glyph unicode="w" horiz-adv-x="1665" d="M14 1016h312l213 -721l196 721h266l197 -721l213 721h311l-356 -1016h-295l-201 711l-204 -711h-295z" />
<glyph unicode="x" horiz-adv-x="1038" d="M18 0l322 528l-293 488h328l192 -361l185 361h280l-282 -488l333 -528h-340l-219 391l-215 -391h-291z" />
<glyph unicode="y" horiz-adv-x="1058" d="M20 1016h330l252 -697l219 697h287l-403 -1067q-80 -209 -170 -293t-250 -84q-121 0 -195 41v192q63 -45 144 -45h10q106 0 153 90q36 89 47 132z" />
<glyph unicode="z" horiz-adv-x="915" d="M66 0v139l462 699h-432v178h793v-137l-463 -703h506l-31 -176h-835z" />
<glyph unicode="{" horiz-adv-x="593" d="M39 537v198q156 0 156 183v368q0 136 102 213q89 68 213 68h92v-181h-31q-67 0 -88 -47q-14 -25 -14 -102v-348q0 -106 -55 -176q-47 -60 -115 -74v-4q170 -35 170 -266v-334q0 -77 14 -105q20 -45 88 -45h31v-180h-92q-129 0 -217 70q-98 76 -98 211v352q0 199 -156 199 z" />
<glyph unicode="|" horiz-adv-x="421" d="M113 -25v1590h215v-1590h-215z" />
<glyph unicode="}" horiz-adv-x="593" d="M18 -115h31q68 0 88 45q15 30 15 105v334q0 231 170 266v4q-70 15 -117 74q-53 71 -53 176v348q0 75 -15 102q-21 47 -88 47h-31v181h93q124 0 213 -68q100 -75 100 -213v-368q0 -183 156 -183v-198q-156 0 -156 -199v-352q0 -135 -98 -211q-88 -70 -215 -70h-93v180z " />
<glyph unicode="~" horiz-adv-x="1120" d="M113 379v235q95 109 217 109q95 0 237 -74q145 -71 221 -71q163 0 261 116v-235q-99 -117 -271 -117q-95 0 -239 72q-137 73 -217 73q-114 0 -209 -108z" />
<glyph unicode="&#xa1;" horiz-adv-x="735" d="M219 -387l33 1024h258l31 -1024h-322zM223 748v307h312v-307h-312z" />
<glyph unicode="&#xa2;" horiz-adv-x="929" d="M78 500q0 238 162 387q165 151 397 151q3 0 10.5 -0.5t20.5 -1.5l26 -2l47 127h172l-55 -153q39 -10 98 -35l2 -2l-40 -195q-63 44 -123 62l-240 -656q62 -24 133 -24q112 0 248 59v-194q-142 -48 -305 -48q-64 0 -144 17l-45 -119h-172l64 172q-256 136 -256 455z M367 506q0 -129 55 -217l205 559q-118 -20 -189 -112t-71 -230z" />
<glyph unicode="&#xa3;" horiz-adv-x="1200" d="M123 0v205q86 0 127 65q33 53 33 148v227h-99v203h99v203q0 188 133 301t366 114q226 3 394 -98l-52 -229q-156 114 -319 114q-101 0 -160 -59q-51 -51 -51 -133v-213h453v-203h-453v-223q0 -157 -70 -215h621v-207h-1022z" />
<glyph unicode="&#xa4;" horiz-adv-x="1417" d="M197 227l120 121q-98 134 -98 301q0 166 103 305l-121 121l118 119l121 -121q137 98 299 98q170 0 305 -102l121 121l119 -121l-121 -121q94 -134 94 -299q0 -168 -98 -305l121 -121l-119 -119l-123 123q-131 -94 -299 -94q-166 0 -303 98l-121 -122zM416 649 q0 -135 92 -227q95 -92 233 -92q134 0 226 92q94 91 94 227q0 138 -94 232q-91 94 -226 94q-139 0 -233 -94q-92 -95 -92 -232z" />
<glyph unicode="&#xa5;" horiz-adv-x="1220" d="M18 1440h365l281 -584l278 584h313l-337 -639h223l-35 -205h-295l-18 -35v-100h348l-35 -205h-313v-256h-312v256h-309l-35 205h344v106l-16 29h-293l-35 205h219z" />
<glyph unicode="&#xa6;" horiz-adv-x="518" d="M160 -25v529h223v-529h-223zM160 936v528h223v-528h-223z" />
<glyph unicode="&#xa7;" horiz-adv-x="929" d="M49 588q0 174 150 260q-142 83 -142 256q0 174 136 274q122 90 301 90q220 0 348 -82l8 -4l-47 -211l-15 11q-121 87 -286 90q-70 0 -119 -27q-64 -34 -64 -98q0 -55 60 -90q121 -48 188 -68q162 -53 209 -92q123 -99 123 -246q0 -174 -125 -262q121 -109 121 -256 q0 -170 -113 -274q-127 -115 -358 -115q-173 0 -344 68l-10 4v227l18 -12q134 -90 303 -90q227 0 227 151q0 70 -67 113q-124 50 -207 74q-138 42 -197 96q-98 85 -98 213zM291 666q0 -69 67 -103q45 -23 181 -67q9 -3 19.5 -7t17 -6.5t10.5 -3.5q54 23 69 76q7 25 7 39 q0 49 -60 94q-30 21 -100 45q-46 18 -119 37q-92 -35 -92 -104z" />
<glyph unicode="&#xa8;" horiz-adv-x="557" d="M-41 1165v250h252v-250h-252zM371 1165v250h252v-250h-252z" />
<glyph unicode="&#xa9;" horiz-adv-x="1562" d="M72 723q0 309 217 526q219 219 528 219q305 0 524 -219q220 -220 220 -526q0 -308 -220 -528t-524 -220q-308 0 -528 220q-217 217 -217 528zM248 723q0 -235 166 -404q168 -165 403 -165t400 165q167 167 167 404q0 235 -167 399q-165 168 -400 168t-403 -168 q-166 -166 -166 -399zM414 713q0 -189 116.5 -300.5t309.5 -111.5q118 0 207 29v151q-60 -45 -181 -45q-117 0 -185.5 76t-68.5 209q0 128 68.5 207.5t183.5 79.5q104 0 162 -58l33 152q-47 21 -213 39q-192 0 -311 -119q-121 -118 -121 -309z" />
<glyph unicode="&#xaa;" horiz-adv-x="677" d="M43 979q9 129 104 188q101 64 293 64q-6 104 -131 104q-101 3 -186 -61l-33 131q104 61 254 61q287 0 287 -278v-395h-180v57q-72 -72 -185 -72h-2q-98 -6 -159.5 52.5t-61.5 148.5zM225 1001q3 -78 84 -81h2q72 0 111 51q22 28 22 73v68q-108 3 -170 -35 q-49 -27 -49 -76z" />
<glyph unicode="&#xab;" horiz-adv-x="1146" d="M80 555l252 414h297l-236 -414l236 -414h-297zM584 555l252 414h294l-235 -414l235 -414h-294z" />
<glyph unicode="&#xac;" horiz-adv-x="1247" d="M102 625v229h1067v-631h-241v402h-826z" />
<glyph unicode="&#xad;" horiz-adv-x="780" d="M96 434v242h609v-242h-609z" />
<glyph unicode="&#xae;" horiz-adv-x="1562" d="M72 723q0 309 217 526q219 219 528 219q305 0 524 -219q220 -220 220 -526q0 -308 -220 -528t-524 -220q-308 0 -528 220q-217 217 -217 528zM248 723q0 -235 166 -404q168 -165 403 -165t400 165q167 167 167 404q0 235 -167 399q-165 168 -400 168t-403 -168 q-166 -166 -166 -399zM494 1126q38 -69 38 -122v-689h193v342h31q66 0 92 -63q4 -10 23 -54.5t43.5 -103t50.5 -121.5h221l-137 297q-42 85 -82 99q75 18 116 77q35 56 35 123q0 215 -287 215h-337zM725 786v209h35q134 0 158 -59q8 -16 8 -43q0 -40 -23 -70 q-34 -37 -110 -37h-68z" />
<glyph unicode="&#xaf;" horiz-adv-x="555" d="M-12 1165v189h608v-189h-608z" />
<glyph unicode="&#xb0;" horiz-adv-x="839" d="M82 1112q0 146 104 250q106 106 250 106q150 0 250 -106q105 -105 105 -250q0 -148 -105 -250q-102 -102 -250 -102q-145 0 -250 102q-104 101 -104 250zM262 1112q0 -73 50 -122.5t124 -49.5q73 0 123.5 50t50.5 122q0 74 -50.5 125t-123.5 51t-123.5 -51t-50.5 -125z " />
<glyph unicode="&#xb1;" horiz-adv-x="1140" d="M88 557v225h395v254h226v-254h393v-225h-393v-264h-226v264h-395zM90 0v225h1012v-225h-1012z" />
<glyph unicode="&#xb2;" horiz-adv-x="667" d="M35 621l2 18q9 148 143 297q34 38 117 111q70 65 102 100q31 42 31 78q0 88 -108 88q-100 0 -193 -84l-23 -23l-36 176l10 7q113 76 262 79h2q135 0 214 -66.5t79 -176.5q0 -120 -109 -226q-34 -30 -80.5 -68.5t-58.5 -49.5q-74 -62 -102 -111h346v-149h-598z" />
<glyph unicode="&#xb3;" horiz-adv-x="673" d="M57 651v174l27 -16q80 -47 190 -47h2q152 15 152 112q0 106 -176 109h-45l-19 -2v149h21q14 0 41 -2h4q151 3 154 103v2q0 80 -109 80q-91 3 -182 -60l-23 -16l-37 168l13 6q99 57 252 57q116 0 198 -55q94 -61 94 -174v-16q-34 -3 -49 -70q-18 -75 -43 -90 q117 -59 117 -199v-6q-3 -113 -96 -182q-94 -67 -230 -70v19v-19h-12q-154 0 -233 39z" />
<glyph unicode="&#xb4;" horiz-adv-x="542" d="M53 1167l172 273h283l-268 -273h-187z" />
<glyph unicode="&#xb5;" horiz-adv-x="1179" d="M100 1014h328v-623q0 -219 178 -219q95 0 154 71t59 191v580h279v-1014h-269v102q-79 -129 -225 -129q-138 0 -176 72v-459h-276v1235q0 99 -52 193z" />
<glyph unicode="&#xb6;" horiz-adv-x="1241" d="M2 1065q0 155 109 264q111 111 264 111h739v-1698h-266v1487h-160v-1487h-266v948h-47q-153 0 -264 111q-109 112 -109 264z" />
<glyph unicode="&#xb7;" horiz-adv-x="546" d="M127 408v307h313v-307h-313z" />
<glyph unicode="&#xb8;" horiz-adv-x="577" d="M180 -258q80 -51 182 -51q117 0 117 73q0 76 -96 76q-36 0 -86 -20l-41 69l117 134h153l-92 -95q5 1 11.5 2t10 1.5t5.5 0.5q116 9 178 -41q55 -43 55 -120q0 -201 -276 -201q-148 0 -238 43v129z" />
<glyph unicode="&#xb9;" horiz-adv-x="495" d="M31 1319l164 119l6 2h174v-832h-209v625l-100 -72z" />
<glyph unicode="&#xba;" horiz-adv-x="759" d="M51 1122q0 154 94 248q94 98 248 98t248 -98q96 -96 96 -248t-96 -248t-248 -96t-248 96q-94 94 -94 248zM250 1122q0 -94 40 -153.5t103 -59.5t103.5 59.5t40.5 153.5q0 96 -40 154.5t-104 58.5q-63 0 -103 -58.5t-40 -154.5z" />
<glyph unicode="&#xbb;" horiz-adv-x="1146" d="M66 141l235 414l-235 414h296l252 -414l-252 -414h-296zM569 141l236 414l-236 414h297l252 -414l-252 -414h-297z" />
<glyph unicode="&#xbc;" horiz-adv-x="1409" d="M29 1319l166 119l4 2h176v-832h-209v625l-103 -72zM45 -55l993 1525h185l-994 -1525h-184zM698 152v178q155 247 238 370q33 50 33 88q0 24 -8 43h303v-538h94v-141h-94v-152h-205v152h-361zM840 293h219v350z" />
<glyph unicode="&#xbd;" horiz-adv-x="1404" d="M29 1319l166 119l4 2h176v-832h-209v625l-103 -72zM45 -55l993 1525h185l-994 -1525h-184zM809 0v18q9 146 143 295q25 29 119 113q76 70 100 100q33 39 33 78q0 88 -108 88q-100 0 -193 -84l-24 -22l-37 176l10 6q118 77 264 80h2q135 0 214 -67t79 -177 q0 -120 -111 -225q-26 -23 -52.5 -46t-51 -44t-33.5 -29q-75 -63 -102 -110h346v-150h-598z" />
<glyph unicode="&#xbe;" horiz-adv-x="1583" d="M55 651l2 174l27 -16q80 -47 190 -47h2q152 15 152 112q0 106 -176 109h-45l-21 -2v149h21q16 0 43 -2h4q151 3 154 103v2q-3 80 -109 80q-91 3 -182 -60l-23 -16l-37 168l13 6q99 57 249 57q119 0 201 -55q94 -61 94 -174v-16q-34 -3 -49 -70q-18 -75 -43 -90 q117 -59 117 -199v-6q-4 -111 -96.5 -180.5t-229.5 -71.5v19v-19h-12q-154 0 -233 39zM221 -55l993 1525h185l-993 -1525h-185zM883 152v178q54 85 108 168.5t85.5 133t43.5 68.5q33 50 33 88q0 24 -8 43h303v-538h96v-141h-96v-152h-205v152h-360zM1024 293h219v350z" />
<glyph unicode="&#xbf;" horiz-adv-x="1026" d="M51 -27q0 199 223 385q174 142 177 279h268v-2q0 -173 -53 -273q-34 -64 -84 -114q-37 -37 -133 -121q-82 -70 -82 -156q0 -87 67 -133q59 -41 148 -41q207 0 381 162l2 2l51 -237q-206 -138 -471 -138q-494 0 -494 387zM428 748v307h311v-307h-311z" />
<glyph unicode="&#xc0;" horiz-adv-x="1366" d="M8 0h295l115 342h526l115 -342h348l-528 1440h-422q20 -50 20 -103q0 -60 -33 -145q-13 -43 -436 -1192zM371 1526l192 272h254l182 -272h-172l-139 153l-145 -153h-172zM483 547l197 594l197 -594h-394z" />
<glyph unicode="&#xc1;" horiz-adv-x="1366" d="M8 0h295l115 342h526l115 -342h348l-528 1440h-422q20 -50 20 -103q0 -60 -33 -145q-13 -43 -436 -1192zM467 1526l172 272h283l-269 -272h-186zM483 547l197 594l197 -594h-394z" />
<glyph unicode="&#xc2;" horiz-adv-x="1363" d="M8 0h295l115 342h526l115 -342h348l-528 1440h-422q20 -50 20 -103q0 -60 -33 -145q-13 -43 -436 -1192zM375 1526l192 272h254l183 -272h-173l-139 153l-145 -153h-172zM483 547l197 594l197 -594h-394z" />
<glyph unicode="&#xc3;" horiz-adv-x="1363" d="M8 0h295l115 344h526l115 -344h348l-528 1440h-422q20 -50 20 -103q0 -60 -33 -145q-13 -43 -436 -1192zM360 1526q0 110 64 174q57 57 149 57q75 0 162 -37q91 -39 131 -39q84 0 84 86h123q4 -113 -52.5 -177t-152.5 -64q-81 0 -166 39t-127 39q-94 0 -94 -78h-121z M483 547l197 594l197 -594h-394z" />
<glyph unicode="&#xc4;" horiz-adv-x="1363" d="M8 0q423 1149 436 1192q33 85 33 145q0 53 -20 103h422l528 -1440h-348l-115 342h-526l-115 -342h-295zM362 1526v248h252v-248h-252zM483 547h394l-197 594zM774 1526v248h252v-248h-252z" />
<glyph unicode="&#xc5;" horiz-adv-x="1363" d="M8 0h295l115 344h526l115 -344h348l-528 1440h-422q20 -50 20 -103q0 -60 -33 -145q-13 -43 -436 -1192zM467 1708q0 91 65 156t156 65q89 0 154 -65q63 -63 63 -156q0 -91 -63 -155t-154 -64q-93 0 -156 63q-65 65 -65 156zM483 547l197 594l197 -594h-394zM588 1708 q0 -41 28.5 -69.5t71.5 -28.5q41 0 69.5 28.5t28.5 69.5q0 43 -28.5 71.5t-69.5 28.5q-43 0 -71.5 -28.5t-28.5 -71.5z" />
<glyph unicode="&#xc6;" horiz-adv-x="1871" d="M6 0q389 774 598 1192q55 107 55 182q0 35 -8 66h1139v-203h-664l54 -387h577v-205h-549l62 -436h547v-209h-838l-45 344h-473l-160 -344h-295zM555 547h350l-80 594z" />
<glyph unicode="&#xc7;" horiz-adv-x="1222" d="M100 707q0 340 213 550q212 209 555 209q226 0 361 -63h2l-49 -227q-113 90 -283 90q-218 0 -352 -158q-129 -150 -129 -387q0 -252 133 -397q132 -144 354 -144q174 0 305 70l-2 -230q-128 -43 -344 -43l-67 -69q14 2 28 2q113 9 176 -39q56 -44 56 -121 q0 -203 -277 -203q-147 0 -237 43v129q80 -51 182 -51q117 0 117 76q0 74 -97 74q-31 0 -86 -19l-41 68l103 119q-297 41 -457 231q-164 194 -164 490z" />
<glyph unicode="&#xc8;" horiz-adv-x="1198" d="M117 1440q55 -101 55 -203v-1237h944v209h-633v436h572v205h-572v387h604v203h-970zM342 1798h283l172 -272h-187z" />
<glyph unicode="&#xc9;" horiz-adv-x="1200" d="M117 1440q55 -101 55 -203v-1237h944v209h-633v436h572v205h-572v387h604v203h-970zM434 1526l172 272h283l-268 -272h-187z" />
<glyph unicode="&#xca;" horiz-adv-x="1200" d="M117 1440q55 -101 55 -203v-1237h944v209h-633v436h574v205h-574v387h604v203h-970zM319 1526l193 272h252l182 -272h-170l-141 153l-143 -153h-173z" />
<glyph unicode="&#xcb;" horiz-adv-x="1198" d="M117 1440h970v-203h-604v-387h572v-205h-572v-436h633v-209h-944v1237q0 102 -55 203zM274 1526v248h252v-248h-252zM686 1526v248h252v-248h-252z" />
<glyph unicode="&#xcc;" horiz-adv-x="591" d="M37 1798h282l173 -272h-187zM98 1440q56 -103 56 -203v-1237h311v1440h-367z" />
<glyph unicode="&#xcd;" horiz-adv-x="591" d="M98 1440q56 -103 56 -203v-1237h311v1440h-367zM104 1526l172 272h283l-268 -272h-187z" />
<glyph unicode="&#xce;" horiz-adv-x="559" d="M-23 1526l193 272h254l182 -272h-172l-141 153l-143 -153h-173zM82 1440q55 -101 55 -203v-1237h312v1440h-367z" />
<glyph unicode="&#xcf;" horiz-adv-x="591" d="M-23 1526v248h252v-248h-252zM98 1440h367v-1440h-311v1237q0 100 -56 203zM389 1526v248h252v-248h-252z" />
<glyph unicode="&#xd0;" horiz-adv-x="1449" d="M16 807h150v430q0 105 -55 203h426q232 0 403 -54q473 -150 473 -647q0 -262 -135 -443t-383 -253q-145 -43 -375 -43h-354v602h-117zM477 203h107q244 0 377 139.5t133 392.5q0 237 -136 371.5t-372 134.5h-109v-434h322l-35 -205h-287v-399z" />
<glyph unicode="&#xd1;" horiz-adv-x="1458" d="M111 1440q55 -101 55 -203v-1237h291v1133l499 -1133h410v1440h-299v-1084l-479 1084h-477zM410 1526q0 111 63 174q57 57 150 57q74 0 161 -37q91 -39 131 -39q86 0 86 86h121q4 -113 -52 -177t-150 -64q-83 0 -168 39t-127 39q-95 0 -95 -78h-120z" />
<glyph unicode="&#xd2;" horiz-adv-x="1538" d="M92 721q0 -316 189 -526q202 -220 518 -220q318 0 520 220q188 209 188 526q0 319 -188 528q-201 219 -520 219q-317 0 -518 -219q-189 -210 -189 -528zM412 723q0 228 104 383q109 158 283 158q173 0 282 -158q107 -155 107 -383q0 -230 -105 -383q-109 -160 -284 -160 q-176 0 -285 160q-102 153 -102 383zM530 1798h283l172 -272h-186z" />
<glyph unicode="&#xd3;" horiz-adv-x="1538" d="M92 721q0 -316 189 -526q199 -220 518 -220q318 0 520 220q188 209 188 526q0 319 -188 528q-201 219 -520 219q-320 0 -518 -219q-189 -210 -189 -528zM412 723q0 228 104 383q109 158 283 158q173 0 282 -158q107 -155 107 -383q0 -230 -105 -383q-109 -160 -284 -160 q-176 0 -285 160q-102 153 -102 383zM553 1526l172 272h283l-269 -272h-186z" />
<glyph unicode="&#xd4;" horiz-adv-x="1538" d="M92 723q0 -318 189 -528q202 -220 518 -220q318 0 520 220q188 209 188 528q0 317 -188 526q-201 219 -520 219q-317 0 -518 -219q-189 -210 -189 -526zM412 723q0 228 102 381q112 160 285 160q174 0 286 -160q103 -154 103 -381q0 -230 -105 -383q-109 -160 -284 -160 q-173 0 -285 160q-102 153 -102 383zM483 1526l195 272h252l182 -272h-172l-139 153l-146 -153h-172z" />
<glyph unicode="&#xd5;" horiz-adv-x="1538" d="M92 721q0 -316 189 -526q202 -220 518 -220q318 0 520 220q188 209 188 526q0 319 -188 528q-201 219 -520 219q-317 0 -518 -219q-189 -210 -189 -528zM412 723q0 228 102 381q112 160 285 160q174 0 286 -160q103 -154 103 -381q0 -230 -105 -383q-109 -160 -284 -160 q-173 0 -285 160q-102 153 -102 383zM451 1526q0 111 63 174q57 57 150 57q75 0 163 -39q93 -37 129 -37q84 0 84 86h123q4 -113 -52.5 -177t-152.5 -64q-80 0 -165 39t-127 39q-95 0 -95 -78h-120z" />
<glyph unicode="&#xd6;" horiz-adv-x="1529" d="M90 721q0 318 189 528q201 219 518 219q319 0 520 -219q188 -209 188 -528q0 -317 -188 -526q-202 -220 -520 -220q-316 0 -518 220q-189 210 -189 526zM410 723q0 -230 102 -383q112 -160 285 -160q175 0 284 160q105 153 105 383q0 228 -107 383q-109 158 -282 158 q-174 0 -283 -158q-104 -155 -104 -383zM465 1526v248h252v-248h-252zM874 1526v248h252v-248h-252z" />
<glyph unicode="&#xd7;" horiz-adv-x="1009" d="M78 211l293 293l-293 293l160 159l292 -292l293 292l160 -159l-293 -293l293 -293l-160 -160l-293 293l-292 -293z" />
<glyph unicode="&#xd8;" horiz-adv-x="1538" d="M92 721q0 318 189 528q201 219 518 219q223 0 399 -114l111 141l106 -84l-112 -145q204 -210 204 -545q0 -317 -188 -526q-202 -220 -520 -220q-233 0 -408 123l-117 -149l-108 84l123 155q-197 212 -197 533zM412 723q0 -165 59 -301l571 733q-103 109 -243 109 q-174 0 -283 -158q-104 -155 -104 -383zM549 299q101 -119 250 -119q175 0 284 160q105 153 105 383q0 170 -66 311z" />
<glyph unicode="&#xd9;" horiz-adv-x="1464" d="M113 1440q53 -103 53 -203v-625q0 -194 47 -309q62 -154 207.5 -241t343.5 -87t343.5 87t207.5 241q45 110 45 309v828h-311v-924q0 -167 -93 -254q-77 -74 -192 -74q-118 0 -195 74q-92 86 -92 254l2 924h-366zM494 1798h282l172 -272h-186z" />
<glyph unicode="&#xda;" horiz-adv-x="1464" d="M113 1440q53 -103 53 -203v-625q0 -194 47 -309q62 -154 207.5 -241t343.5 -87t343.5 87t207.5 241q45 110 45 309v828h-311v-924q0 -167 -93 -254q-77 -74 -192 -74q-118 0 -195 74q-92 86 -92 254l2 924h-366zM518 1526l172 272h283l-268 -272h-187z" />
<glyph unicode="&#xdb;" horiz-adv-x="1464" d="M113 1440q53 -103 53 -203v-625q0 -194 47 -309q62 -154 207.5 -241t343.5 -87t343.5 87t207.5 241q47 115 47 309v828h-313l2 -924q0 -168 -95 -254q-77 -74 -192 -74q-116 0 -193 74q-92 86 -92 254v924h-366zM449 1526l192 272h254l182 -272h-172l-141 153l-143 -153 h-172z" />
<glyph unicode="&#xdc;" horiz-adv-x="1462" d="M113 1440h366l-2 -926q0 -166 94 -254q78 -72 193 -72q114 0 192 72q93 90 93 254v926h313v-828q0 -194 -47 -309q-62 -154 -207.5 -241t-343.5 -87t-343.5 87t-207.5 241q-47 115 -47 309v625q0 100 -53 203zM436 1526v248h252v-248h-252zM848 1526v248h252v-248h-252z " />
<glyph unicode="&#xdd;" horiz-adv-x="1220" d="M14 1440l463 -873v-567h311v561l463 879h-313l-279 -582l-280 582h-365zM461 1468l172 273h285l-269 -273h-188z" />
<glyph unicode="&#xde;" horiz-adv-x="1185" d="M106 1440h349v-230h207q222 0 362 -98q162 -113 162 -321q0 -239 -164 -359q-144 -102 -393 -102h-88h-70v-330h-311v1237q0 98 -54 203zM471 530h131q154 0 225 86q47 62 47 160q0 233 -268 236h-65h-70v-482z" />
<glyph unicode="&#xdf;" horiz-adv-x="1232" d="M145 0v1024q0 207 121 322q131 122 385 122q243 0 375 -102q125 -94 125 -272q0 -109 -61.5 -187.5t-167.5 -109.5q145 -19 227 -122.5t76 -258.5q-9 -192 -138 -303q-134 -113 -372 -113h-109v203h6q301 0 301 243q0 102 -69 162q-80 74 -234 74h-4v195q240 9 240 200 q0 193 -195 193q-196 0 -196 -223l-2 -1047h-308z" />
<glyph unicode="&#xe0;" d="M68 281q0 -131 90 -215q92 -89 245 -89q197 -3 310 134v-111h256v610q0 428 -439 428q-231 0 -387 -90l47 -180q143 90 285 90q221 0 221 -192q-303 3 -469 -99q-156 -102 -159 -286zM289 1440h282l172 -273h-186zM332 315q0 107 129 154q98 39 241 33v-119 q0 -78 -36 -123q-68 -86 -187 -86q-147 0 -147 141z" />
<glyph unicode="&#xe1;" d="M68 281q0 -131 90 -215q92 -89 245 -89q197 -3 310 134v-111h256v610q0 428 -439 428q-231 0 -387 -90l47 -180q143 90 285 90q221 0 221 -192q-303 3 -469 -99q-156 -102 -159 -286zM332 315q0 107 129 154q98 39 241 33v-119q0 -78 -36 -123q-68 -86 -187 -86 q-147 0 -147 141zM346 1167l172 273h283l-269 -273h-186z" />
<glyph unicode="&#xe2;" d="M68 281q0 -131 90 -215q92 -89 245 -89q197 -3 310 134v-111h256v610q0 428 -439 428q-231 0 -387 -90l47 -180q143 90 285 90q221 0 221 -192q-303 3 -469 -99q-156 -102 -159 -286zM242 1167l192 273h254l182 -273h-172l-141 154l-143 -154h-172zM332 315 q0 107 129 154q98 39 241 33v-119q0 -78 -36 -123q-68 -86 -187 -86q-147 0 -147 141z" />
<glyph unicode="&#xe3;" d="M68 281q0 -131 90 -215q92 -89 245 -89q197 -3 310 134v-111h256v610q0 428 -439 428q-231 0 -387 -90l47 -180q143 90 285 90q221 0 221 -192q-303 3 -469 -99q-156 -102 -159 -286zM188 1167q-3 107 64 174q60 60 149 60q73 0 160 -37q96 -41 133 -41q84 0 84 86h121 q4 -113 -52 -176.5t-151 -63.5q-79 0 -166 37q-85 39 -129 39q-92 0 -92 -78h-121zM332 315q0 107 129 154q98 39 241 33v-119q0 -78 -36 -123q-68 -86 -187 -86q-147 0 -147 141z" />
<glyph unicode="&#xe4;" d="M68 281q3 184 159 286q166 102 469 99q0 192 -221 192q-142 0 -285 -90l-47 180q156 90 387 90q439 0 439 -428v-610h-256v111q-113 -137 -310 -134q-153 0 -245 89q-90 84 -90 215zM225 1165v250h252v-250h-252zM332 315q0 -141 147 -141q119 0 187 86q36 45 36 123v119 q-143 6 -241 -33q-129 -47 -129 -154zM637 1165v250h252v-250h-252z" />
<glyph unicode="&#xe5;" horiz-adv-x="1046" d="M68 281q0 -133 92 -218.5t243 -85.5q197 -3 310 134v-111h256v610q0 428 -439 428q-231 0 -387 -90l47 -180q143 90 285 90q222 0 219 -192q-300 4 -462 -97t-164 -288zM293 1384q0 91 65 156q66 66 156 66q88 0 154 -66q65 -65 65 -156t-64 -154t-155 -63q-92 0 -156 64 q-65 65 -65 153zM332 315q0 107 129 154q98 39 241 33v-119q0 -79 -38 -123q-65 -86 -185 -86q-147 0 -147 141zM414 1384q0 -41 28.5 -69.5t71.5 -28.5q41 0 69.5 28.5t28.5 69.5q0 43 -28.5 72t-69.5 29q-43 0 -71.5 -29t-28.5 -72z" />
<glyph unicode="&#xe6;" horiz-adv-x="1630" d="M68 281q0 188 162 288.5t466 96.5q0 192 -221 192q-142 0 -285 -90l-47 180q156 90 387 90q216 0 328 -112q130 112 316 112q225 0 350 -137t125 -360q0 -48 -7 -95h-671q27 -292 321 -292q156 0 289 92v-201q-143 -70 -348 -70q-264 0 -404 140q-77 -83 -180 -113 q-92 -28 -246 -25q-153 0 -245 89q-90 84 -90 215zM332 315q0 -141 147 -141q119 0 187 86q36 45 36 123v119q-143 6 -241 -33q-129 -47 -129 -154zM975 623h393q-9 237 -190 237q-168 0 -203 -237z" />
<glyph unicode="&#xe7;" horiz-adv-x="929" d="M78 500q0 238 162 387q165 151 397 151q171 0 319 -65l2 -2l-40 -195q-122 84 -244 78q-138 -6 -222.5 -100.5t-84.5 -247.5q0 -167 92 -262q86 -86 229 -86q112 0 248 59v-194q-112 -40 -258 -46l-49 -47q14 2 28 2q117 9 179 -38q55 -46 55 -123q0 -201 -277 -201 q-146 0 -239 43v129q80 -51 184 -51q117 0 117 73q0 76 -96 76q-36 0 -86 -18l-43 67l81 95q-212 29 -333 166t-121 350z" />
<glyph unicode="&#xe8;" horiz-adv-x="1050" d="M70 504q0 -246 147 -387.5t399 -141.5h2q204 0 347 70v201q-130 -92 -287 -92q-298 0 -322 292h672q6 41 6 95q0 223 -125 360t-350 137q-223 0 -356 -151t-133 -383zM360 623q34 237 203 237q182 0 191 -237h-394zM371 1440h282l172 -273h-186z" />
<glyph unicode="&#xe9;" horiz-adv-x="1050" d="M70 504q0 -246 147 -387.5t399 -141.5h2q204 0 347 70v201q-130 -92 -287 -92q-298 0 -322 292h672q6 41 6 95q0 223 -125 360t-350 137q-223 0 -356 -151t-133 -383zM360 623q34 237 203 237q182 0 191 -237h-394zM371 1167l172 273h282l-268 -273h-186z" />
<glyph unicode="&#xea;" horiz-adv-x="1050" d="M70 504q0 -246 147 -387.5t399 -141.5h2q204 0 347 70v201q-130 -92 -287 -92q-298 0 -322 292h672q6 41 6 95q0 223 -125 360t-350 137q-223 0 -356 -151t-133 -383zM248 1167l192 273h252l182 -273h-172l-139 154l-145 -154h-170zM360 623q34 237 203 237 q182 0 191 -237h-394z" />
<glyph unicode="&#xeb;" horiz-adv-x="1050" d="M70 504q0 232 133 383t356 151q225 0 350 -137t125 -360q0 -54 -6 -95h-672q24 -292 322 -292q157 0 287 92v-201q-143 -70 -347 -70h-2q-252 0 -399 141.5t-147 387.5zM229 1165v250h250v-250h-250zM360 623h394q-9 237 -191 237q-169 0 -203 -237zM639 1165v250h252 v-250h-252z" />
<glyph unicode="&#xec;" horiz-adv-x="544" d="M-25 1440h283l172 -273h-186zM98 1014q52 -94 52 -183v-831h278v1014h-330z" />
<glyph unicode="&#xed;" horiz-adv-x="565" d="M106 1014q54 -97 54 -183v-831h276l2 1014h-332zM109 1167l172 273h282l-268 -273h-186z" />
<glyph unicode="&#xee;" horiz-adv-x="552" d="M-18 1167l192 273h252l182 -273h-172l-139 154l-145 -154h-170zM106 1014q52 -94 52 -183v-831h276l2 1014h-330z" />
<glyph unicode="&#xef;" horiz-adv-x="565" d="M-31 1165v250h252v-250h-252zM106 1014h332l-2 -1014h-276v831q0 86 -54 183zM381 1165v250h252v-250h-252z" />
<glyph unicode="&#xf0;" horiz-adv-x="1155" d="M78 514q0 104 37.5 204.5t97.5 160.5q132 129 313 129q180 0 295 -103q-50 156 -194 250l-189 -111l-71 125l102 60q-98 31 -203 31l-39 202q279 12 486 -92l174 103l71 -125l-110 -64q280 -229 280 -668q0 -332 -153 -505q-143 -158 -389 -158q-254 0 -389 170 q-119 149 -119 391zM389 479q0 -157 56 -239t151 -82q96 0 151.5 82t55.5 239q0 156 -55.5 239t-151.5 83q-95 0 -151 -82.5t-56 -239.5z" />
<glyph unicode="&#xf1;" horiz-adv-x="1167" d="M94 1014q51 -92 51 -193v-821h279v600q0 101 61 174q64 76 160 76q172 0 172 -209v-641h279v641q0 397 -375 397q-184 0 -305 -127v103h-322zM254 1167q0 110 59.5 172t153.5 62q75 0 162 -37q96 -41 131 -41q86 0 86 86h121q4 -113 -52 -176.5t-151 -63.5q-81 0 -168 37 q-85 39 -127 39q-94 0 -94 -78h-121z" />
<glyph unicode="&#xf2;" horiz-adv-x="1138" d="M74 508q0 -236 147 -383q148 -148 381 -148q235 0 383 148t148 383q0 233 -148 381q-146 149 -383 149q-235 0 -381 -149q-147 -147 -147 -381zM340 1440h283l174 -273h-189zM362 508q0 153 67.5 250.5t172.5 97.5q106 0 174 -97.5t68 -250.5q0 -155 -68 -252.5 t-174 -97.5q-105 0 -172.5 98t-67.5 252z" />
<glyph unicode="&#xf3;" horiz-adv-x="1138" d="M74 508q0 -236 147 -383q148 -148 383 -148q233 0 381 148t148 383q0 233 -148 381q-146 149 -381 149q-237 0 -383 -149q-147 -147 -147 -381zM362 508q0 153 68 250.5t174 97.5q105 0 172.5 -97.5t67.5 -250.5q0 -154 -67.5 -252t-172.5 -98q-106 0 -174 97.5 t-68 252.5zM395 1167l172 273h283l-268 -273h-187z" />
<glyph unicode="&#xf4;" horiz-adv-x="1138" d="M74 508q0 -236 147 -383q148 -148 383 -148q233 0 381 148t148 383q0 233 -148 381q-146 149 -381 149q-237 0 -383 -149q-147 -147 -147 -381zM289 1167l192 273h254l183 -273h-173l-141 154l-143 -154h-172zM362 508q0 153 68 250.5t174 97.5q105 0 172.5 -97.5 t67.5 -250.5q0 -154 -67.5 -252t-172.5 -98q-106 0 -174 97.5t-68 252.5z" />
<glyph unicode="&#xf5;" horiz-adv-x="1138" d="M74 508q0 -236 147 -383q148 -148 383 -148q233 0 381 148t148 383q0 233 -148 381q-146 149 -381 149q-237 0 -383 -149q-147 -147 -147 -381zM248 1167q-3 111 63 174q60 60 150 60q73 0 160 -37q96 -41 133 -41q84 0 84 86h120q6 -113 -50.5 -176.5t-151.5 -63.5 q-79 0 -166 37q-85 39 -127 39q-94 0 -94 -78h-121zM362 508q0 153 68 250.5t174 97.5q105 0 172.5 -97.5t67.5 -250.5q0 -154 -67.5 -252t-172.5 -98q-106 0 -174 97.5t-68 252.5z" />
<glyph unicode="&#xf6;" horiz-adv-x="1138" d="M74 508q0 234 147 381q146 149 381 149q237 0 383 -149q148 -148 148 -381q0 -235 -148 -383t-383 -148q-233 0 -381 148q-147 147 -147 383zM274 1165v250h250v-250h-250zM362 508q0 -154 67.5 -252t172.5 -98q106 0 174 97.5t68 252.5q0 153 -68 250.5t-174 97.5 q-105 0 -172.5 -97.5t-67.5 -250.5zM684 1165v250h252v-250h-252z" />
<glyph unicode="&#xf7;" horiz-adv-x="1132" d="M82 399v226h1014v-226h-1014zM426 121q0 70 45.5 116t116.5 46t116.5 -46t45.5 -116q0 -72 -45 -117t-117 -45t-117 45t-45 117zM426 899q0 69 45 114.5t117 45.5t117 -45.5t45 -114.5q0 -72 -45 -117t-117 -45t-117 45t-45 117z" />
<glyph unicode="&#xf8;" horiz-adv-x="1138" d="M74 508q0 234 147 381q146 149 381 149q157 0 277 -69l135 166l108 -84l-135 -164q146 -149 146 -379q0 -235 -148 -383t-383 -148q-164 0 -289 76l-123 -151l-108 82l127 157q-135 144 -135 367zM362 508q0 -82 21 -152l358 445q-58 55 -139 55q-105 0 -172.5 -97.5 t-67.5 -250.5zM455 227q63 -69 147 -69q106 0 174 97.5t68 252.5q0 88 -27 168z" />
<glyph unicode="&#xf9;" horiz-adv-x="1159" d="M94 1014q51 -92 51 -193v-430q0 -202 95.5 -309t273.5 -107q194 0 309 127v-102h269v1014h-279v-596q0 -103 -65 -180q-64 -76 -160 -76q-166 0 -166 205v647h-328zM295 1440h283l174 -273h-189z" />
<glyph unicode="&#xfa;" horiz-adv-x="1159" d="M94 1014q51 -92 51 -193v-430q0 -202 95.5 -309t273.5 -107q194 0 309 127v-102h269v1014h-279v-596q0 -103 -65 -180q-64 -76 -160 -76q-166 0 -166 205v647h-328zM465 1167l172 273h283l-269 -273h-186z" />
<glyph unicode="&#xfb;" horiz-adv-x="1159" d="M94 1014q51 -92 51 -193v-430q0 -202 95.5 -309t273.5 -107q194 0 309 127v-102h269v1014h-279v-596q0 -103 -65 -180q-64 -76 -160 -76q-166 0 -166 205v647h-328zM301 1167l193 273h251l183 -273h-170l-142 154l-145 -154h-170z" />
<glyph unicode="&#xfc;" horiz-adv-x="1159" d="M94 1014h328v-647q0 -205 166 -205q96 0 160 76q65 77 65 180v596h279v-1014h-269v102q-115 -127 -309 -127q-178 0 -273.5 107t-95.5 309v430q0 101 -51 193zM287 1165v250h252v-250h-252zM698 1165v250h252v-250h-252z" />
<glyph unicode="&#xfd;" horiz-adv-x="1081" d="M20 1016l424 -1034q-11 -43 -47 -132q-47 -90 -153 -90q-87 -3 -154 45v-192q74 -41 195 -41q160 0 250 84t170 293l403 1067h-287l-219 -697l-252 697h-330zM383 1167l174 273h283l-269 -273h-188z" />
<glyph unicode="&#xfe;" horiz-adv-x="1187" d="M94 1440h320v-531q108 129 307 129t326 -145q129 -144 129 -373q0 -236 -134 -391q-134 -152 -344 -152q-162 0 -274 103v-494h-279v1659q0 99 -51 195zM420 506q0 -133 49 -227q64 -119 182 -119q121 0 185 119q49 94 49 227t-49 227q-65 121 -185 121q-93 0 -159 -84 q-72 -97 -72 -264z" />
<glyph unicode="&#xff;" horiz-adv-x="1081" d="M20 1016h330l252 -697l219 697h287l-403 -1067q-80 -209 -170 -293t-250 -84q-121 0 -195 41v192q67 -48 154 -45q106 0 153 90q36 89 47 132zM233 1165v250h252v-250h-252zM643 1165v250h252v-250h-252z" />
<glyph unicode="&#x152;" horiz-adv-x="2177" d="M92 721q0 318 189 528q201 219 518 219q251 0 418 -112v84h890v-203h-604v-387h574v-205h-572q-2 -4 -2 -10v-426h633v-209h-919v86q-169 -111 -418 -111q-316 0 -518 220q-189 210 -189 526zM412 723q0 -230 102 -383q112 -160 285 -160q175 0 284 160q105 153 105 383 q0 228 -107 383q-109 158 -282 158q-174 0 -283 -158q-104 -155 -104 -383z" />
<glyph unicode="&#x153;" horiz-adv-x="1777" d="M74 508q0 234 147 381q146 149 383 149q229 0 377 -145q136 145 352 145q225 0 350 -137t125 -360q0 -54 -6 -95h-672q24 -292 322 -292q157 0 287 92v-201q-143 -70 -346 -70h-2q-261 0 -408 150q-148 -148 -379 -148q-235 0 -383 148q-147 147 -147 383zM362 508 q0 -155 68 -252.5t174 -97.5q104 0 171.5 96t68.5 248v8q0 153 -67.5 249.5t-172.5 96.5q-106 0 -174 -97.5t-68 -250.5zM1135 623h393q-9 237 -191 237q-167 0 -202 -237z" />
<glyph unicode="&#x178;" horiz-adv-x="1220" d="M18 1440h365l281 -584l278 584h313l-462 -879v-561h-312v567zM324 1526v248h251v-248h-251zM735 1526v248h250v-248h-250z" />
<glyph unicode="&#x2c6;" horiz-adv-x="577" d="M-16 1167l192 273h252l182 -273h-170l-141 154l-145 -154h-170z" />
<glyph unicode="&#x2dc;" horiz-adv-x="583" d="M-53 1167q0 110 59.5 172t153.5 62q75 0 162 -37q96 -41 131 -41q86 0 86 86h120q4 -113 -51.5 -176.5t-150.5 -63.5q-81 0 -168 37q-85 39 -127 39q-92 0 -92 -78h-123z" />
<glyph unicode="&#x2000;" horiz-adv-x="964" />
<glyph unicode="&#x2001;" horiz-adv-x="1929" />
<glyph unicode="&#x2002;" horiz-adv-x="964" />
<glyph unicode="&#x2003;" horiz-adv-x="1929" />
<glyph unicode="&#x2004;" horiz-adv-x="643" />
<glyph unicode="&#x2005;" horiz-adv-x="482" />
<glyph unicode="&#x2006;" horiz-adv-x="321" />
<glyph unicode="&#x2007;" horiz-adv-x="321" />
<glyph unicode="&#x2008;" horiz-adv-x="241" />
<glyph unicode="&#x2009;" horiz-adv-x="385" />
<glyph unicode="&#x200a;" horiz-adv-x="107" />
<glyph unicode="&#x2010;" horiz-adv-x="704" d="M66 434v242h608v-242h-608z" />
<glyph unicode="&#x2011;" horiz-adv-x="704" d="M66 434v242h608v-242h-608z" />
<glyph unicode="&#x2012;" horiz-adv-x="704" d="M66 434v242h608v-242h-608z" />
<glyph unicode="&#x2013;" horiz-adv-x="995" d="M0 453v204h1038v-204h-1038z" />
<glyph unicode="&#x2014;" horiz-adv-x="1984" d="M0 453v204h2071v-204h-2071z" />
<glyph unicode="&#x2018;" horiz-adv-x="501" d="M72 981l184 459h221l-100 -459h-305z" />
<glyph unicode="&#x2019;" horiz-adv-x="516" d="M72 981l100 459h305l-182 -459h-223z" />
<glyph unicode="&#x201a;" horiz-adv-x="499" d="M35 -176l100 459h305l-182 -459h-223z" />
<glyph unicode="&#x201c;" horiz-adv-x="899" d="M61 981l185 459h221l-100 -459h-306zM471 981l184 459h222l-101 -459h-305z" />
<glyph unicode="&#x201d;" horiz-adv-x="899" d="M61 981l101 459h305l-182 -459h-224zM471 981l102 459h304l-183 -459h-223z" />
<glyph unicode="&#x201e;" horiz-adv-x="899" d="M61 -154l103 459h305l-184 -459h-224zM473 -154l100 459h306l-185 -459h-221z" />
<glyph unicode="&#x2022;" horiz-adv-x="1009" d="M152 721q0 154 108 262q108 111 264 111q153 0 264 -111q111 -108 111 -262q0 -155 -111 -266q-112 -109 -264 -109t-264 109q-108 111 -108 266z" />
<glyph unicode="&#x2026;" horiz-adv-x="1966" d="M193 0v307h313v-307h-313zM870 0v307h314v-307h-314zM1550 0v307h312v-307h-312z" />
<glyph unicode="&#x202f;" horiz-adv-x="385" />
<glyph unicode="&#x2039;" horiz-adv-x="665" d="M80 555l252 414h297l-236 -414l236 -414h-297z" />
<glyph unicode="&#x203a;" horiz-adv-x="665" d="M66 141l235 414l-235 414h296l252 -414l-252 -414h-296z" />
<glyph unicode="&#x205f;" horiz-adv-x="482" />
<glyph unicode="&#x20ac;" horiz-adv-x="1312" d="M23 506v168h137q-4 56 4 133h-141v170h178q75 227 270 360q192 131 457 131q213 0 364 -65l-49 -227q-119 90 -285 90q-310 0 -430 -289h670l-37 -170h-678q-10 -72 -4 -133h654l-37 -168h-586q50 -156 169 -242t286 -86q174 0 305 70v-230q-133 -43 -352 -43 q-296 0 -492 146q-188 139 -244 385h-159z" />
<glyph unicode="&#x2122;" horiz-adv-x="1886" d="M68 1440h677l-20 -123h-223v-746h-189v746h-223zM868 1440h314l194 -672l193 672h289v-869h-183v715l-207 -715h-184l-209 715v-715h-174v746q0 67 -33 123z" />
<glyph unicode="&#xe000;" horiz-adv-x="1013" d="M0 0v1014h1014v-1014h-1014z" />
</font>
</defs>
</svg>
