<?xml version="1.0" standalone="no"?>
<!DOCTYPE svg PUBLIC "-//W3C//DTD SVG 1.1//EN" "http://www.w3.org/Graphics/SVG/1.1/DTD/svg11.dtd" >
<svg xmlns="http://www.w3.org/2000/svg">
<metadata></metadata>
<defs>
<font id="arthurregular" horiz-adv-x="1220" >
<font-face units-per-em="2048" ascent="1638" descent="-410" />
<missing-glyph horiz-adv-x="759" />
<glyph horiz-adv-x="2048" />
<glyph horiz-adv-x="2048" />
<glyph unicode="&#xd;" horiz-adv-x="759" />
<glyph unicode=" "  horiz-adv-x="759" />
<glyph unicode="&#x09;" horiz-adv-x="759" />
<glyph unicode="&#xa0;" horiz-adv-x="759" />
<glyph unicode="A" horiz-adv-x="1120" d="M0 129q0 133 195 205q125 47 202 47q12 0 115.5 -12.5t181.5 -12.5q4 33 -51 156q-63 137 -137 231q-92 119 -172 119t-187 -37q283 170 660 432q88 -102 201 -401q100 -266 100 -319q0 -35 -68.5 -231.5t-126.5 -321.5q-63 20 -149 143q-76 106 -158 106 q-20 0 -210.5 -104t-219.5 -104h-92q-63 0 -80 49q-4 12 -4 55zM63 139q51 -51 95 -51q72 0 385 158q-104 51 -176 51q-84 0 -170 -43q-92 -47 -134 -115z" />
<glyph unicode="B" horiz-adv-x="1333" d="M-190 760q10 43 124 117q135 90 179 141q61 596 143 1767q8 125 8 215q0 156 -26.5 219.5t-26.5 69.5q0 53 133 447q18 51 225 170q172 100 346 198q-193 -770 -325 -1524q-121 -680 -252 -1689l16 -182q12 12 369 358q231 227 381 346q152 -172 188 -317q17 -68 17 -265 q0 -434 -322 -649q-262 -176 -661 -176q-49 0 -148 23q-113 25 -180 57q20 33 71.5 338t51.5 397v111q-6 1 -13 1q-67 0 -147 -56q-76 -59 -151 -117zM170 182l276 -30q31 0 110 23.5t110 23.5q55 0 155 51q123 63 123 143q0 84 -104 258q-111 184 -201 228 q-203 -248 -291 -373q-117 -170 -178 -324z" />
<glyph unicode="C" d="M8 455q0 104 236 313q203 176 469 340q257 158 336 158h2h110q-176 -285 -295 -719q20 39 21 80q0 104 -105 190q-100 80 -204 80q-55 -33 -56 -133q0 -236 191 -381q160 -125 346 -125q90 0 160 41q0 -10 12 -39t12 -39q-6 -2 -354 -147q-199 -84 -334 -84 q-178 0 -342 108q-205 135 -205 357z" />
<glyph unicode="D" horiz-adv-x="1208" d="M-551 2693q6 68 49 232q61 236 70 274q186 -106 598 -614q389 -481 702 -977q340 -535 340 -697q0 -170 -86 -381q-94 -229 -239 -376q-170 -168 -365 -168q-205 0 -371 192q-149 173 -149 334q0 90 172 244q127 115 322 243q166 109 188 115q-322 428 -551 778 q-193 295 -256 373q-121 150 -424 428zM471 760q0 -152 98 -260q109 -119 281 -119q66 0 89.5 28.5t23.5 94.5q0 121 -93 301q-47 88 -180 295q-219 -190 -219 -340z" />
<glyph unicode="E" d="M4 535q0 88 244 274q199 152 469 307q256 145 305 146q55 0 127 -51.5t72 -88.5q0 -92 -299 -313q-240 -180 -361 -238q70 -166 240 -264q141 -82 270 -82q159 0 227 35q-467 -254 -706 -254q-209 0 -393 158q-195 164 -195 371zM522 803q0 -27 12.5 -75t12.5 -62 q66 31 130 64.5t64 82.5q0 53 -151 129q-20 -35 -41 -68q-27 -45 -27 -71z" />
<glyph unicode="F" horiz-adv-x="917" d="M35 -1538l221 2247q0 16 3 59t3 68q0 151 -101 151h-1q-29 0 -64 -10v96q59 27 119 53q76 35 96 88q68 180 68 551q0 84 -4 261.5t-4 267.5q0 473 104 715q141 332 512 401q147 -246 416 -246q139 0 182 -55h-360q-217 0 -357 -51l-305 -1766q0 -117 170 -190 q133 -57 260 -60q-39 -59 -188 -59q-37 0 -102.5 3t-90.5 3q-80 0 -84 -26l-327 -1862q-27 -188 -54 -379q-43 -242 -112 -260z" />
<glyph unicode="G" horiz-adv-x="1421" d="M-1227 -1094q240 246 576 451q319 197 454 197q31 0 91 -21q82 -27 86 -29q-20 2 -46 2q-172 0 -404 -127t-392 -303q-174 -190 -174 -350q0 -285 340 -532q262 -190 676 -326q338 -111 497 -111q322 0 428 207q68 131 68 443q0 205 -162 428q-109 150 -350 374 q-272 252 -338 332q37 59 188 199q170 152 260 274q-39 45 -196 90q-182 55 -250 97q-121 78 -121 215q0 31 174 260q188 246 357 426q211 225 284 225q10 0 301 -201.5t396 -207.5q-35 -39 -87.5 -55.5t-72.5 -49.5q-287 -459 -553 -698q-41 -37 -76 -88q-37 -59 -37 -95 q0 -115 219 -364q205 -223 410 -447q221 -260 221 -407q0 -242 -295 -617q-264 -338 -622.5 -610t-548.5 -272q-209 0 -570 145q-416 166 -682 410q-331 300 -331 635q0 213 282 501zM618 748q0 -119 68 -218q83 -124 238 -124h2q53 0 129 83q84 93 84 187 q0 125 -60.5 198.5t-177.5 73.5q-104 0 -178 -37q-104 -53 -105 -163z" />
<glyph unicode="H" horiz-adv-x="1275" d="M-135 -195q0 16 73.5 122t79.5 161q51 403 103 866v158q-23 25 -43 25q-16 0 -29 -15q86 55 127 576q33 545 64 1087q45 696 125 1020q244 139 583 238q-129 -727 -368 -1796q-246 -1090 -322 -1520q92 37 279 279q256 336 294 378q78 -14 138 -170q35 -90 94 -347 t104 -371q151 98 260 209q-78 -139 -335 -386q-340 -324 -355 -337q0 45 19.5 179t19.5 158q0 186 -24 277q-53 180 -209 180q-139 0 -277 -231q-96 -164 -198 -461q-57 -168 -115 -336q-88 0 -88 57z" />
<glyph unicode="I" horiz-adv-x="647" d="M-4 262q0 176 51 273q53 109 315 428q0 -47 -5 -163t-5 -132q0 -8 -2 -41v-54q0 -235 153 -235h1q100 0 168 47q-123 -131 -244 -262q-121 -123 -238 -123q-102 0 -155 106q-39 76 -39 156zM158 1264l209 100l315 317l-223 -36z" />
<glyph unicode="J" horiz-adv-x="724" d="M-156 -1915q59 223 84 561q39 504 47 557q18 150 91 668q59 422 59 446q0 18 -9.5 69.5t-9.5 80.5q-10 12 -45 12q-33 -2 -61 -14l508 442q12 -3 45 -26q-115 -143 -172 -359q-43 -158 -59 -377q-8 -152 -19 -301q-23 -203 -43 -405q-31 -252 -72 -418 q-45 -182 -159 -471q-160 -399 -185 -465zM164 1016q10 51 172 266t182 215t29.5 -18.5t32.5 -18.5q28 0 184 51q0 -49 -19 -63q-147 -88 -581 -432z" />
<glyph unicode="K" horiz-adv-x="1314" d="M-29 -51q31 59 74 182q98 592 197 1184q87 564 87 909q0 36 -1 70q12 10 24.5 21.5t12.5 43.5v619q0 31 16 84q20 74 20 78q1 8 1 19q0 23 -5 63q-10 72 -10 94q0 57 223 250q168 145 258 206q18 -20 19 -61q0 -61 -62 -246q-66 -197 -75 -284q-49 -434 -99 -1283 q-41 -686 -41 -808v-244q16 -6 58 -37q25 18 127 113q86 78 133 100q102 39 315 121h76q27 -5 27 -56q0 -109 -269 -233q-227 -104 -340 -111q-10 -12 -18 -29.5t-21 -27.5q121 -145 541 -741l-14 -49l-256 340q-170 225 -305 372q-49 -29 -97 -168q-55 -156 -80 -184 q-63 -74 -227 -182q-133 -90 -266 -178q-24 32 -24 47q0 4 1 6zM811 813h80q84 47 166 96q104 70 141 142q-176 -70 -199 -82q-131 -66 -188 -156z" />
<glyph unicode="L" horiz-adv-x="800" d="M16 188v-1q3 0 148 989q80 559 252 1673q149 72 440 217q-76 -223 -149 -445q-98 -287 -132 -444q-8 -113 -47 -358q-2 -14 -49 -181q-41 -137 -47 -213q-39 -477 -39 -817q0 -4 -2 -47t-2 -78q0 -305 121 -305q49 0 161.5 97.5t143.5 154.5q4 -12 27 -43 q-53 -111 -203 -201q-111 -68 -236 -104q-70 -18 -178 -88q-141 -88 -168 -103q-38 299 -41 299v-2z" />
<glyph unicode="M" horiz-adv-x="2048" d="M-117 10v90q-2 37 49 68q68 39 93 80q37 63 37 177q0 23 -1 48q-28 24 -28 86q0 33 8 109t8 116q0 51 -10 87t-21 71q-14 49 -14 84q0 53 31 86q39 43 162 94q16 6 213 82q35 16 69 35q49 25 78 25q20 0 33 -11q-59 -82 -90 -268q-35 -211 -56 -256q-8 -12 11 -31 q274 262 438 480q27 -12 65 -48q25 -86 54 -245q37 -205 51 -271q299 336 584 564q68 -96 102 -258q20 -94 45 -302q23 -193 43 -276q71 55 315 250q0 -68 -4 -78q-164 -188 -385 -354q-186 -137 -374 -275q27 68 55 246q25 160 24 211q0 135 -24 186q-35 76 -174 191 q-90 -66 -195 -225q-10 -16 -23.5 -77t-31.5 -91q-53 -80 -166 -209q-145 -162 -184 -213q88 354 88 418q0 111 -37 210q-51 143 -152 144q-66 0 -299 -301q-279 -360 -387 -449z" />
<glyph unicode="N" horiz-adv-x="1486" d="M-55 -90q66 315 80 565q1 12 1 27q0 48 -10 127q-14 115 -14 166q0 84 25 147q37 96 182 236q215 201 242 233q1 -57 1 -111q0 -279 -26 -475l20 -14l496 508q139 -41 221 -189q49 -90 107.5 -303t103.5 -295q99 73 373 347q-27 -156 -354 -486q-264 -264 -443 -391 q6 51 6 107q0 264 -114 475q-123 227 -301 227q-33 0 -238 -338q-262 -434 -358 -563z" />
<glyph unicode="O" horiz-adv-x="1333" d="M10 336q0 31 56 205q59 182 105 282.5t132 218.5q94 127 178 196t283 122q160 43 227 43q41 0 125 -35q92 -39 137 -86q33 -33 67 -116t34 -126q0 -68 -37 -237q-47 -215 -107 -297q-131 -186 -356 -340q-250 -172 -436 -172q-90 0 -244 115q-164 123 -164 227zM518 735 q-2 -92 138.5 -251.5t224.5 -159.5q51 0 51 26q47 139 47 205q0 143 -176 305q-160 147 -285 166v-291z" />
<glyph unicode="P" horiz-adv-x="1204" d="M-246 -1585l277 1601q-25 16 -84 41q-78 31 -105 43v72q-2 23 21 59q18 27 35 56q31 -18 98 -19q55 0 63 13q88 350 109 616q-16 49 -74 49q-32 0 -98 -20q-60 -18 -80 -17h-4q0 63 -10 74q8 -8 43 -8q70 0 669 274v-61q0 -20 -29.5 -54t-33.5 -49q-43 -150 -86 -297 q-43 -165 -43 -285v-11q35 27 86 104q57 90 86 119q80 78 209 174q135 104 166 104q86 0 172 -98q78 -89 78 -152q0 -254 -295 -604q-14 -18 -196.5 -64t-258.5 -46q-18 0 -40.5 8t-45.5 8q-20 0 -74 -31q-61 -207 -182 -618q-160 -553 -326 -1004q244 1055 432 1839 l-12 -36q-201 -791 -467 -1780zM358 98h195q98 0 197 123q90 115 90 203q0 55 -49 131q-59 86 -136 92q-96 -104 -172 -266q-61 -141 -125 -283z" />
<glyph unicode="Q" horiz-adv-x="1083" d="M6 428q0 117 105 207q10 10 225 156q150 100 213 208q6 10 47 107q35 80 72 125q47 55 116 55q168 0 267 -256q69 -180 69 -319q0 -207 -147 -416q-166 -240 -436 -330q229 -344 354 -475q-41 -43 -160 -82q-205 -68 -207 -67q-55 84 -110 167q-63 102 -84 193 q-4 10 -6 127q0 90 -23 135q-6 16 -43 39q-43 27 -51 35q-201 211 -201 391zM465 641q0 -63 76 -233q96 -219 209 -220q72 0 112 99q29 67 29 133q0 78 -57 209q-78 180 -199 180q-55 0 -112.5 -56.5t-57.5 -111.5z" />
<glyph unicode="R" horiz-adv-x="1292" d="M-78 1001q131 66 379 213q289 172 395 230l60 -58q-25 -51 -56 -143q-51 -152 -65 -190q-8 -14 14 -37l547 405q49 -43 101.5 -129t52.5 -133q0 -129 -172 -217q-133 -70 -232 -70q-25 0 -87 12.5t-93 12.5q-125 0 -207 -180q-39 -109 -78 -219q-39 -66 -301 -527 l-65 -24v127q-2 29 24 96q31 78 35 98q57 291 57 451q0 190 -88 321q-41 -14 -82 -30q-59 -25 -112 -62q8 10 8 21q0 33 -35 32z" />
<glyph unicode="S" horiz-adv-x="1001" d="M-86 213l33 199q18 -98 94 -185q82 -92 170 -92q225 0 225 234q0 49 -10 153.5t-10 153.5q0 55 10 94q43 182 229 399q205 236 441 338h2q18 0 57 -22q-16 -104 -106 -187q-23 -20 -166 -120q0 -31 10 -126.5t10 -150.5q0 -63 -10 -113q-14 -82 -45 -251 q-20 -117 -230 -320q-223 -219 -372 -219q-96 0 -159.5 41t-172.5 174z" />
<glyph unicode="T" horiz-adv-x="778" d="M-4 913q96 25 129 37q80 29 115 72q27 31 36 115q14 100 27 133q37 98 123 227q4 4 147 207q29 -27 29 -62q0 -70 -67 -311q-63 -223 -76 -237q43 -70 141 -88q78 -10 154 -23q-68 -117 -166 -145q-84 -16 -168 -33q-51 -76 -51 -432q0 -299 73 -398q76 -104 365 -178 q-98 -55 -268 -129q-180 -78 -215 -78q-18 0 -59.5 -3t-61.5 -3q-160 0 -187 160q-4 29 -4 199q0 195 41 395q39 180 142 504v24q-25 -10 -88.5 -10t-90.5 -8q0 8 -10 32.5t-10 32.5z" />
<glyph unicode="U" horiz-adv-x="1601" d="M-20 940q0 27 38 123q47 109 56 145q57 -22 197 -22h12q170 0 249 67q53 -106 54 -168q0 -29 -67.5 -270.5t-67.5 -267.5q0 -37 12 -52.5t26 -27.5h82q55 0 213 156q147 143 191 221q119 209 391 477q-39 -174 -39 -461q0 -199 33 -303q61 -203 237 -203q33 0 69 7.5 t44 7.5q-584 -395 -620 -396h-119q-18 166 -19 326q0 147 17 289l-35 37q-96 -115 -381 -334q-270 -207 -426 -295h-96q-29 29 -29 100q0 23 56.5 239t56.5 245q0 111 -37 190q-18 47 -64 104q-35 43 -34 66z" />
<glyph unicode="V" horiz-adv-x="1374" d="M-111 805q10 49 237.5 269t285.5 220q74 0 217 -301q45 -94 178 -420q57 0 117 115q51 102 51 164q0 27 -121 272q170 33 549 109q27 -31 27 -76q0 -27 -14.5 -91.5t-14.5 -98.5q-41 41 -86 41q-31 0 -47.5 -9.5t-28.5 -17.5q-68 -109 -223 -317q-180 -240 -242 -330 q-23 -33 -151 -332h-76v11q0 165 -168 452q-180 307 -356 399q-53 -59 -134 -59z" />
<glyph unicode="W" horiz-adv-x="1816" d="M-29 942q0 29 80 152q37 -70 80 -70q33 0 129 41t166 82q66 -68 80 -246q25 -299 31 -323q184 129 200 202q-1 11 -1 25q0 28 5 69q14 33 86 130q82 115 119 176q2 2 21 94q16 80 55 123q18 -20 18 -47v3v-63q0 -10 189 -235q205 -240 252 -355q12 0 19 17.5t16 34.5 q22 73 22 132v5q0 96 -49 174q-59 92 -164 111q223 111 471 276q31 -18 55.5 -54.5t24.5 -52.5q0 -76 -109 -290q-78 -145 -153 -291q-96 -209 -291 -610q0 115 -111 254q-100 125 -249 225q-16 -23 -17 -142q-115 106 -182 195q-123 -125 -328 -352q-39 -49 -110.5 -159 t-116.5 -165q0 39 15.5 137.5t15.5 120.5q0 23 -15 86q-16 72 -18 90q-10 90 -64 213q-18 41 -100 162q-72 102 -72 125z" />
<glyph unicode="X" horiz-adv-x="1439" d="M-8 -10v98q0 27 155 442q111 -55 154 -55q98 0 197 49q-274 342 -467 424q16 78 22 182q98 -94 162 -94q25 0 179.5 84t176.5 84q41 0 254 -317l875 819h69l-899 -905q25 -86 95 -191q82 -129 163 -168q6 -4 117 -4q141 0 187 15q-164 -166 -478 -502q-154 174 -376 506 q-39 -16 -213 -248q-164 -219 -218 -219h-155z" />
<glyph unicode="Y" horiz-adv-x="1208" d="M-139 897q186 205 465 440q147 -152 272 -383q115 -211 176 -424q258 341 512 572q-141 -399 -514 -1182q-305 -639 -401 -1036q-27 -115 -119 -115q-72 0 -184.5 113.5t-108.5 175.5v115q223 -213 283 -213q33 0 73.5 55t55.5 108q242 827 241 877q0 129 -161 356 q-143 203 -330 374q-183 167 -257 167h-3z" />
<glyph unicode="Z" horiz-adv-x="1603" d="M-229 -27q31 33 243 238q178 170 262 287q68 94 125 254q86 240 99 266q-29 6 -66 6q-96 0 -221 -35q-115 -31 -193 -71q133 383 234 608q33 -180 162 -244q102 -53 329 -53q14 0 131 -12.5t173 -12.5q-215 -238 -689 -731q119 -90 340 -141q199 -47 400 -47 q231 0 375.5 115.5t173.5 336.5q23 -33 43 -67q28 -43 28 -70q0 -43 -61 -135q-70 -102 -141 -135q-37 -16 -332 -164q-205 -100 -340 -152q-39 -16 -141 -30q-94 -14 -138 -15h-256q-25 0 -30 19.5t-29 19.5q-326 0 -481 -35z" />
<glyph unicode="a" horiz-adv-x="1120" d="M0 129q0 133 195 205q125 47 202 47q12 0 115.5 -12.5t181.5 -12.5q4 33 -51 156q-63 137 -137 231q-92 119 -172 119t-187 -37q283 170 660 432q88 -102 201 -401q100 -266 100 -319q0 -35 -68.5 -231.5t-126.5 -321.5q-63 20 -149 143q-76 106 -158 106 q-20 0 -210.5 -104t-219.5 -104h-92q-63 0 -80 49q-4 12 -4 55zM63 139q51 -51 95 -51q72 0 385 158q-104 51 -176 51q-84 0 -170 -43q-92 -47 -134 -115z" />
<glyph unicode="b" horiz-adv-x="1333" d="M-190 760q10 43 124 117q135 90 179 141q61 596 143 1767q8 125 8 215q0 156 -26.5 219.5t-26.5 69.5q0 53 133 447q18 51 225 170q172 100 346 198q-193 -770 -325 -1524q-121 -680 -252 -1689l16 -182q12 12 369 358q231 227 381 346q152 -172 188 -317q17 -68 17 -265 q0 -434 -322 -649q-262 -176 -661 -176q-49 0 -148 23q-113 25 -180 57q20 33 71.5 338t51.5 397v111q-6 1 -13 1q-67 0 -147 -56q-76 -59 -151 -117zM170 182l276 -30q31 0 110 23.5t110 23.5q55 0 155 51q123 63 123 143q0 84 -104 258q-111 184 -201 228 q-203 -248 -291 -373q-117 -170 -178 -324z" />
<glyph unicode="c" d="M8 455q0 104 236 313q203 176 469 340q257 158 336 158h2h110q-176 -285 -295 -719q20 39 21 80q0 104 -105 190q-100 80 -204 80q-55 -33 -56 -133q0 -236 191 -381q160 -125 346 -125q90 0 160 41q0 -10 12 -39t12 -39q-6 -2 -354 -147q-199 -84 -334 -84 q-178 0 -342 108q-205 135 -205 357z" />
<glyph unicode="d" horiz-adv-x="1208" d="M-551 2693q6 68 49 232q61 236 70 274q186 -106 598 -614q389 -481 702 -977q340 -535 340 -697q0 -170 -86 -381q-94 -229 -239 -376q-170 -168 -365 -168q-205 0 -371 192q-149 173 -149 334q0 90 172 244q127 115 322 243q166 109 188 115q-322 428 -551 778 q-193 295 -256 373q-121 150 -424 428zM471 760q0 -152 98 -260q109 -119 281 -119q66 0 89.5 28.5t23.5 94.5q0 121 -93 301q-47 88 -180 295q-219 -190 -219 -340z" />
<glyph unicode="e" d="M4 535q0 88 244 274q199 152 469 307q256 145 305 146q55 0 127 -51.5t72 -88.5q0 -92 -299 -313q-240 -180 -361 -238q70 -166 240 -264q141 -82 270 -82q159 0 227 35q-467 -254 -706 -254q-209 0 -393 158q-195 164 -195 371zM522 803q0 -27 12.5 -75t12.5 -62 q66 31 130 64.5t64 82.5q0 53 -151 129q-20 -35 -41 -68q-27 -45 -27 -71z" />
<glyph unicode="f" horiz-adv-x="917" d="M35 -1538l221 2247q0 16 3 59t3 68q0 151 -101 151h-1q-29 0 -64 -10v96q59 27 119 53q76 35 96 88q68 180 68 551q0 84 -4 261.5t-4 267.5q0 473 104 715q141 332 512 401q147 -246 416 -246q139 0 182 -55h-360q-217 0 -357 -51l-305 -1766q0 -117 170 -190 q133 -57 260 -60q-39 -59 -188 -59q-37 0 -102.5 3t-90.5 3q-80 0 -84 -26l-327 -1862q-27 -188 -54 -379q-43 -242 -112 -260z" />
<glyph unicode="g" horiz-adv-x="1421" d="M-1227 -1094q240 246 576 451q319 197 454 197q31 0 91 -21q82 -27 86 -29q-20 2 -46 2q-172 0 -404 -127t-392 -303q-174 -190 -174 -350q0 -285 340 -532q262 -190 676 -326q338 -111 497 -111q322 0 428 207q68 131 68 443q0 205 -162 428q-109 150 -350 374 q-272 252 -338 332q37 59 188 199q170 152 260 274q-39 45 -196 90q-182 55 -250 97q-121 78 -121 215q0 31 174 260q188 246 357 426q211 225 284 225q10 0 301 -201.5t396 -207.5q-35 -39 -87.5 -55.5t-72.5 -49.5q-287 -459 -553 -698q-41 -37 -76 -88q-37 -59 -37 -95 q0 -115 219 -364q205 -223 410 -447q221 -260 221 -407q0 -242 -295 -617q-264 -338 -622.5 -610t-548.5 -272q-209 0 -570 145q-416 166 -682 410q-331 300 -331 635q0 213 282 501zM618 748q0 -119 68 -218q83 -124 238 -124h2q53 0 129 83q84 93 84 187 q0 125 -60.5 198.5t-177.5 73.5q-104 0 -178 -37q-104 -53 -105 -163z" />
<glyph unicode="h" horiz-adv-x="1275" d="M-135 -195q0 16 73.5 122t79.5 161q51 403 103 866v158q-23 25 -43 25q-16 0 -29 -15q86 55 127 576q33 545 64 1087q45 696 125 1020q244 139 583 238q-129 -727 -368 -1796q-246 -1090 -322 -1520q92 37 279 279q256 336 294 378q78 -14 138 -170q35 -90 94 -347 t104 -371q151 98 260 209q-78 -139 -335 -386q-340 -324 -355 -337q0 45 19.5 179t19.5 158q0 186 -24 277q-53 180 -209 180q-139 0 -277 -231q-96 -164 -198 -461q-57 -168 -115 -336q-88 0 -88 57z" />
<glyph unicode="i" horiz-adv-x="647" d="M-4 262q0 176 51 273q53 109 315 428q0 -47 -5 -163t-5 -132q0 -8 -2 -41v-54q0 -235 153 -235h1q100 0 168 47q-123 -131 -244 -262q-121 -123 -238 -123q-102 0 -155 106q-39 76 -39 156zM158 1264l209 100l315 317l-223 -36z" />
<glyph unicode="j" horiz-adv-x="724" d="M-156 -1915q59 223 84 561q39 504 47 557q18 150 91 668q59 422 59 446q0 18 -9.5 69.5t-9.5 80.5q-10 12 -45 12q-33 -2 -61 -14l508 442q12 -3 45 -26q-115 -143 -172 -359q-43 -158 -59 -377q-8 -152 -19 -301q-23 -203 -43 -405q-31 -252 -72 -418 q-45 -182 -159 -471q-160 -399 -185 -465zM164 1016q10 51 172 266t182 215t29.5 -18.5t32.5 -18.5q28 0 184 51q0 -49 -19 -63q-147 -88 -581 -432z" />
<glyph unicode="k" horiz-adv-x="1314" d="M-29 -51q31 59 74 182q98 592 197 1184q87 564 87 909q0 36 -1 70q12 10 24.5 21.5t12.5 43.5v619q0 31 16 84q20 74 20 78q1 8 1 19q0 23 -5 63q-10 72 -10 94q0 57 223 250q168 145 258 206q18 -20 19 -61q0 -61 -62 -246q-66 -197 -75 -284q-49 -434 -99 -1283 q-41 -686 -41 -808v-244q16 -6 58 -37q25 18 127 113q86 78 133 100q102 39 315 121h76q27 -5 27 -56q0 -109 -269 -233q-227 -104 -340 -111q-10 -12 -18 -29.5t-21 -27.5q121 -145 541 -741l-14 -49l-256 340q-170 225 -305 372q-49 -29 -97 -168q-55 -156 -80 -184 q-63 -74 -227 -182q-133 -90 -266 -178q-24 32 -24 47q0 4 1 6zM811 813h80q84 47 166 96q104 70 141 142q-176 -70 -199 -82q-131 -66 -188 -156z" />
<glyph unicode="l" horiz-adv-x="800" d="M16 188v-1q3 0 148 989q80 559 252 1673q149 72 440 217q-76 -223 -149 -445q-98 -287 -132 -444q-8 -113 -47 -358q-2 -14 -49 -181q-41 -137 -47 -213q-39 -477 -39 -817q0 -4 -2 -47t-2 -78q0 -305 121 -305q49 0 161.5 97.5t143.5 154.5q4 -12 27 -43 q-53 -111 -203 -201q-111 -68 -236 -104q-70 -18 -178 -88q-141 -88 -168 -103q-38 299 -41 299v-2z" />
<glyph unicode="m" horiz-adv-x="2048" d="M-117 10v90q-2 37 49 68q68 39 93 80q37 63 37 177q0 23 -1 48q-28 24 -28 86q0 33 8 109t8 116q0 51 -10 87t-21 71q-14 49 -14 84q0 53 31 86q39 43 162 94q16 6 213 82q35 16 69 35q49 25 78 25q20 0 33 -11q-59 -82 -90 -268q-35 -211 -56 -256q-8 -12 11 -31 q274 262 438 480q27 -12 65 -48q25 -86 54 -245q37 -205 51 -271q299 336 584 564q68 -96 102 -258q20 -94 45 -302q23 -193 43 -276q71 55 315 250q0 -68 -4 -78q-164 -188 -385 -354q-186 -137 -374 -275q27 68 55 246q25 160 24 211q0 135 -24 186q-35 76 -174 191 q-90 -66 -195 -225q-10 -16 -23.5 -77t-31.5 -91q-53 -80 -166 -209q-145 -162 -184 -213q88 354 88 418q0 111 -37 210q-51 143 -152 144q-66 0 -299 -301q-279 -360 -387 -449z" />
<glyph unicode="n" horiz-adv-x="1486" d="M-55 -90q66 315 80 565q1 12 1 27q0 48 -10 127q-14 115 -14 166q0 84 25 147q37 96 182 236q215 201 242 233q1 -57 1 -111q0 -279 -26 -475l20 -14l496 508q139 -41 221 -189q49 -90 107.5 -303t103.5 -295q99 73 373 347q-27 -156 -354 -486q-264 -264 -443 -391 q6 51 6 107q0 264 -114 475q-123 227 -301 227q-33 0 -238 -338q-262 -434 -358 -563z" />
<glyph unicode="o" horiz-adv-x="1333" d="M10 336q0 31 56 205q59 182 105 282.5t132 218.5q94 127 178 196t283 122q160 43 227 43q41 0 125 -35q92 -39 137 -86q33 -33 67 -116t34 -126q0 -68 -37 -237q-47 -215 -107 -297q-131 -186 -356 -340q-250 -172 -436 -172q-90 0 -244 115q-164 123 -164 227zM518 735 q-2 -92 138.5 -251.5t224.5 -159.5q51 0 51 26q47 139 47 205q0 143 -176 305q-160 147 -285 166v-291z" />
<glyph unicode="p" horiz-adv-x="1204" d="M-246 -1585l277 1601q-25 16 -84 41q-78 31 -105 43v72q-2 23 21 59q18 27 35 56q31 -18 98 -19q55 0 63 13q88 350 109 616q-16 49 -74 49q-31 0 -98 -20q-60 -17 -80 -17h-4q0 63 -10 74q8 -8 43 -8q70 0 669 274v-61q0 -20 -29.5 -54t-33.5 -49q-43 -150 -86 -297 q-43 -165 -43 -285v-11q35 27 86 104q57 90 86 119q80 78 209 174q135 104 166 104q86 0 172 -98q78 -89 78 -152q0 -254 -295 -604q-14 -18 -196.5 -64t-258.5 -46q-18 0 -40.5 8t-45.5 8q-20 0 -74 -31q-61 -207 -182 -618q-160 -553 -326 -1004q244 1055 432 1839 l-12 -36q-201 -791 -467 -1780zM358 98h195q98 0 197 123q90 115 90 203q0 55 -49 131q-59 86 -136 92q-96 -104 -172 -266q-61 -141 -125 -283z" />
<glyph unicode="q" horiz-adv-x="1083" d="M6 428q0 117 105 207q10 10 225 156q150 100 213 208q6 10 47 107q35 80 72 125q47 55 116 55q168 0 267 -256q69 -180 69 -319q0 -207 -147 -416q-166 -240 -436 -330q229 -344 354 -475q-41 -43 -160 -82q-205 -68 -207 -67q-55 84 -110 167q-63 102 -84 193 q-4 10 -6 127q0 90 -23 135q-6 16 -43 39q-43 27 -51 35q-201 211 -201 391zM465 641q0 -63 76 -233q96 -219 209 -220q72 0 112 99q29 67 29 133q0 78 -57 209q-78 180 -199 180q-55 0 -112.5 -56.5t-57.5 -111.5z" />
<glyph unicode="r" horiz-adv-x="1292" d="M-78 1001q131 66 379 213q289 172 395 230l60 -58q-25 -51 -56 -143q-51 -152 -65 -190q-8 -14 14 -37l547 405q49 -43 101.5 -129t52.5 -133q0 -129 -172 -217q-133 -70 -232 -70q-25 0 -87 12.5t-93 12.5q-125 0 -207 -180q-39 -109 -78 -219q-39 -66 -301 -527 l-65 -24v127q-2 29 24 96q31 78 35 98q57 291 57 451q0 190 -88 321q-41 -14 -82 -30q-59 -25 -112 -62q8 10 8 21q0 33 -35 32z" />
<glyph unicode="s" horiz-adv-x="1001" d="M-86 213l33 199q18 -98 94 -185q82 -92 170 -92q225 0 225 234q0 49 -10 153.5t-10 153.5q0 55 10 94q43 182 229 399q205 236 441 338h2q18 0 57 -22q-16 -104 -106 -187q-23 -20 -166 -120q0 -31 10 -126.5t10 -150.5q0 -63 -10 -113q-14 -82 -45 -251 q-20 -117 -230 -320q-223 -219 -372 -219q-96 0 -159.5 41t-172.5 174z" />
<glyph unicode="t" horiz-adv-x="778" d="M-4 913q96 25 129 37q80 29 115 72q27 31 36 115q14 100 27 133q37 98 123 227q4 4 147 207q29 -27 29 -62q0 -70 -67 -311q-63 -223 -76 -237q43 -70 141 -88q78 -10 154 -23q-68 -117 -166 -145q-84 -16 -168 -33q-51 -76 -51 -432q0 -299 73 -398q76 -104 365 -178 q-98 -55 -268 -129q-180 -78 -215 -78q-18 0 -59.5 -3t-61.5 -3q-160 0 -187 160q-4 29 -4 199q0 195 41 395q39 180 142 504v24q-25 -10 -88.5 -10t-90.5 -8q0 8 -10 32.5t-10 32.5z" />
<glyph unicode="u" horiz-adv-x="1601" d="M-20 940q0 27 38 123q47 109 56 145q57 -22 197 -22h12q170 0 249 67q53 -106 54 -168q0 -29 -67.5 -270.5t-67.5 -267.5q0 -37 12 -52.5t26 -27.5h82q55 0 213 156q147 143 191 221q119 209 391 477q-39 -174 -39 -461q0 -199 33 -303q61 -203 237 -203q33 0 69 7.5 t44 7.5q-584 -395 -620 -396h-119q-18 166 -19 326q0 147 17 289l-35 37q-96 -115 -381 -334q-270 -207 -426 -295h-96q-29 29 -29 100q0 23 56.5 239t56.5 245q0 111 -37 190q-18 47 -64 104q-35 43 -34 66z" />
<glyph unicode="v" horiz-adv-x="1374" d="M-111 805q10 49 237.5 269t285.5 220q74 0 217 -301q45 -94 178 -420q57 0 117 115q51 102 51 164q0 27 -121 272q170 33 549 109q27 -31 27 -76q0 -27 -14.5 -91.5t-14.5 -98.5q-41 41 -86 41q-31 0 -47.5 -9.5t-28.5 -17.5q-68 -109 -223 -317q-180 -240 -242 -330 q-23 -33 -151 -332h-76v11q0 165 -168 452q-180 307 -356 399q-53 -59 -134 -59z" />
<glyph unicode="w" horiz-adv-x="1816" d="M-29 942q0 29 80 152q37 -70 80 -70q33 0 129 41t166 82q66 -68 80 -246q25 -299 31 -323q184 129 200 202q-1 11 -1 25q0 28 5 69q14 33 86 130q82 115 119 176q2 2 21 94q16 80 55 123q18 -20 18 -47v3v-63q0 -10 189 -235q205 -240 252 -355q12 0 19 17.5t16 34.5 q22 73 22 132v5q0 96 -49 174q-59 92 -164 111q223 111 471 276q31 -18 55.5 -54.5t24.5 -52.5q0 -76 -109 -290q-78 -145 -153 -291q-96 -209 -291 -610q0 115 -111 254q-100 125 -249 225q-16 -23 -17 -142q-115 106 -182 195q-123 -125 -328 -352q-39 -49 -110.5 -159 t-116.5 -165q0 39 15.5 137.5t15.5 120.5q0 23 -15 86q-16 72 -18 90q-10 90 -64 213q-18 41 -100 162q-72 102 -72 125z" />
<glyph unicode="x" horiz-adv-x="1439" d="M-8 -10v98q0 27 155 442q111 -55 154 -55q98 0 197 49q-274 342 -467 424q16 78 22 182q98 -94 162 -94q25 0 179.5 84t176.5 84q41 0 254 -317l875 819h69l-899 -905q25 -86 95 -191q82 -129 163 -168q6 -4 117 -4q141 0 187 15q-164 -166 -478 -502q-154 174 -376 506 q-39 -16 -213 -248q-164 -219 -218 -219h-155z" />
<glyph unicode="y" horiz-adv-x="1208" d="M-139 897q186 205 465 440q147 -152 272 -383q115 -211 176 -424q258 341 512 572q-141 -399 -514 -1182q-305 -639 -401 -1036q-27 -115 -119 -115q-72 0 -184.5 113.5t-108.5 175.5v115q223 -213 283 -213q33 0 73.5 55t55.5 108q242 827 241 877q0 129 -161 356 q-143 203 -330 374q-183 167 -257 167h-3z" />
<glyph unicode="z" horiz-adv-x="1603" d="M-229 -27q31 33 243 238q178 170 262 287q68 94 125 254q86 240 99 266q-29 6 -66 6q-96 0 -221 -35q-115 -31 -193 -71q133 383 234 608q33 -180 162 -244q102 -53 329 -53q14 0 131 -12.5t173 -12.5q-215 -238 -689 -731q119 -90 340 -141q199 -47 400 -47 q231 0 375.5 115.5t173.5 336.5q23 -33 43 -67q28 -43 28 -70q0 -43 -61 -135q-70 -102 -141 -135q-37 -16 -332 -164q-205 -100 -340 -152q-39 -16 -141 -30q-94 -14 -138 -15h-256q-25 0 -30 19.5t-29 19.5q-326 0 -481 -35z" />
<glyph unicode="&#x2000;" horiz-adv-x="2052" />
<glyph unicode="&#x2001;" horiz-adv-x="4104" />
<glyph unicode="&#x2002;" horiz-adv-x="2052" />
<glyph unicode="&#x2003;" horiz-adv-x="4104" />
<glyph unicode="&#x2004;" horiz-adv-x="1368" />
<glyph unicode="&#x2005;" horiz-adv-x="1026" />
<glyph unicode="&#x2006;" horiz-adv-x="684" />
<glyph unicode="&#x2007;" horiz-adv-x="684" />
<glyph unicode="&#x2008;" horiz-adv-x="513" />
<glyph unicode="&#x2009;" horiz-adv-x="820" />
<glyph unicode="&#x200a;" horiz-adv-x="228" />
<glyph unicode="&#x202f;" horiz-adv-x="820" />
<glyph unicode="&#x205f;" horiz-adv-x="1026" />
<glyph unicode="&#xe000;" horiz-adv-x="1710" d="M0 0v1710h1710v-1710h-1710z" />
</font>
</defs>
</svg>
